<svg id="svg" version="1.1" width="400" height="207.75193798449612" viewBox="0 0 400 207.75193798449612" xmlns="http://www.w3.org/2000/svg" xmlns:xlink="http://www.w3.org/1999/xlink" ><g id="svgg"><path id="path0" d="M77.064 83.377 C 77.364 83.759,78.130 83.880,78.130 83.545 C 78.130 83.229,77.643 83.020,77.550 83.297 C 77.485 83.492,77.388 83.489,77.123 83.281 C 76.816 83.042,76.810 83.052,77.064 83.377 M76.883 83.932 C 76.883 84.062,77.008 84.217,77.160 84.275 C 77.313 84.334,77.437 84.513,77.437 84.673 C 77.437 84.887,77.340 84.913,77.070 84.768 C 76.174 84.288,73.558 84.529,73.558 85.091 C 73.558 85.472,73.448 85.610,73.143 85.610 C 72.598 85.610,72.618 85.851,73.208 86.405 C 74.490 87.609,77.740 86.851,77.792 85.336 C 77.813 84.718,77.864 84.628,78.049 84.880 C 78.374 85.324,78.491 85.279,78.857 84.571 L 79.180 83.948 78.360 83.948 C 77.909 83.948,77.393 83.891,77.212 83.822 C 77.031 83.752,76.883 83.802,76.883 83.932 M201.974 86.251 C 195.512 86.539,195.912 86.366,195.540 89.039 C 195.228 91.281,195.430 92.300,196.360 93.192 C 196.950 93.757,196.987 93.886,196.987 95.375 C 196.987 96.906,197.010 96.980,197.704 97.652 C 198.098 98.034,198.459 98.544,198.507 98.784 C 198.561 99.059,198.603 98.967,198.621 98.536 C 198.641 98.057,198.493 97.695,198.130 97.332 C 197.624 96.826,197.610 96.735,197.610 93.809 L 197.610 90.805 205.984 90.805 C 211.907 90.805,214.427 90.874,214.592 91.039 C 214.765 91.212,215.000 91.212,215.496 91.039 C 216.787 90.589,217.828 90.733,218.217 91.418 C 218.522 91.954,218.717 92.045,219.827 92.170 L 221.091 92.313 221.091 93.660 C 221.091 94.981,221.109 95.024,222.026 95.929 C 222.636 96.530,222.961 97.030,222.961 97.367 C 222.961 98.001,223.452 99.218,223.793 99.429 C 223.945 99.523,223.922 99.390,223.734 99.091 C 223.564 98.819,223.373 97.913,223.308 97.076 C 223.202 95.703,223.119 95.475,222.452 94.738 C 221.744 93.953,221.714 93.859,221.714 92.345 C 221.714 90.812,221.695 90.753,221.001 90.138 C 220.494 89.689,220.246 89.259,220.145 88.649 C 219.785 86.482,219.978 86.547,212.883 86.232 C 207.892 86.011,207.333 86.012,201.974 86.251 M248.935 90.001 C 248.935 90.337,249.065 90.819,249.224 91.072 C 249.392 91.339,249.555 92.346,249.614 93.472 C 249.714 95.365,249.734 95.430,250.468 96.182 C 251.200 96.931,251.221 96.997,251.221 98.536 C 251.221 100.065,251.244 100.138,251.893 100.684 C 252.526 101.217,252.573 101.353,252.703 103.029 C 252.835 104.720,252.875 104.835,253.530 105.370 C 254.103 105.837,254.241 106.118,254.353 107.044 L 254.487 108.156 254.516 106.758 C 254.543 105.480,254.501 105.331,254.026 105.020 C 253.522 104.690,253.506 104.608,253.506 102.314 C 253.506 99.790,253.782 99.216,254.302 100.656 C 254.443 101.045,254.774 101.504,255.037 101.677 C 255.300 101.849,255.781 102.272,256.106 102.615 C 256.953 103.514,264.039 103.878,273.247 103.497 C 277.016 103.341,278.104 103.588,278.798 104.758 C 279.073 105.221,279.083 105.201,278.995 104.381 C 278.920 103.685,278.715 103.337,277.944 102.599 C 277.418 102.094,276.987 101.525,276.987 101.334 C 276.987 100.868,275.074 100.862,272.874 101.322 C 270.416 101.835,267.737 101.523,265.533 100.465 C 264.975 100.197,264.561 99.722,263.930 98.624 C 261.105 93.707,255.506 89.980,250.234 89.507 L 248.935 89.390 248.935 90.001 M166.069 91.444 C 165.693 91.523,165.226 91.726,165.030 91.896 C 164.835 92.065,164.194 92.258,163.607 92.323 C 163.019 92.389,161.850 92.686,161.009 92.984 C 160.168 93.281,158.639 93.748,157.610 94.021 C 156.582 94.295,155.201 94.707,154.542 94.937 C 153.347 95.355,148.787 96.304,145.039 96.915 C 141.323 97.520,138.468 97.684,130.900 97.725 L 123.325 97.766 119.325 97.085 C 117.125 96.711,114.226 96.171,112.883 95.886 C 111.540 95.601,109.927 95.268,109.299 95.146 C 108.670 95.025,107.408 94.745,106.494 94.524 C 101.408 93.295,98.455 94.000,90.078 98.444 C 89.287 98.863,89.407 98.806,85.714 100.546 C 80.163 103.162,74.979 103.980,71.065 102.857 C 70.208 102.611,69.039 102.280,68.468 102.120 C 67.571 101.869,62.455 99.422,60.561 98.337 C 60.212 98.137,59.230 97.666,58.379 97.289 C 57.528 96.912,56.270 96.326,55.584 95.987 C 54.899 95.647,53.831 95.222,53.211 95.042 C 52.591 94.863,51.867 94.573,51.600 94.399 C 51.334 94.225,50.486 94.034,49.714 93.974 C 48.943 93.915,48.059 93.739,47.751 93.583 C 47.442 93.426,46.974 93.306,46.712 93.315 C 46.449 93.324,46.351 93.379,46.495 93.437 C 46.928 93.611,46.562 93.922,45.923 93.922 C 45.595 93.922,44.660 94.062,43.846 94.233 C 42.532 94.510,42.300 94.510,41.765 94.233 C 40.865 93.768,38.026 93.798,38.026 94.273 C 38.026 94.588,37.996 94.585,37.746 94.242 C 37.477 93.874,37.448 93.877,36.998 94.327 C 36.629 94.696,36.585 94.845,36.789 95.034 C 36.986 95.216,37.013 95.211,36.901 95.013 C 36.821 94.870,36.854 94.753,36.975 94.753 C 37.096 94.753,37.195 94.894,37.195 95.065 C 37.195 95.309,36.881 95.383,35.740 95.408 C 33.794 95.450,33.789 95.450,33.614 95.688 C 33.530 95.803,33.459 96.153,33.458 96.468 L 33.455 97.039 31.896 97.039 L 30.338 97.039 30.338 97.766 L 30.338 98.494 29.091 98.494 C 28.405 98.494,27.784 98.486,27.712 98.476 C 27.473 98.444,27.227 99.002,27.224 99.584 C 27.221 100.098,27.148 100.156,26.494 100.156 C 25.801 100.156,25.766 100.190,25.766 100.883 C 25.766 101.480,25.689 101.610,25.337 101.610 C 24.565 101.610,24.104 102.002,24.104 102.657 C 24.104 103.272,23.922 103.382,23.027 103.311 C 22.772 103.290,22.682 103.441,22.694 103.871 C 22.714 104.557,22.496 104.993,22.219 104.822 C 22.113 104.757,22.025 104.825,22.023 104.975 C 22.020 105.172,21.965 105.161,21.823 104.935 C 21.650 104.663,21.578 104.671,21.254 104.995 C 20.930 105.318,20.923 105.391,21.195 105.563 C 21.382 105.681,21.407 105.761,21.259 105.763 C 21.122 105.765,21.047 105.956,21.093 106.190 C 21.166 106.572,21.096 106.603,20.398 106.499 L 19.622 106.383 19.596 108.650 L 19.571 110.917 20.201 111.043 C 20.548 111.112,21.475 111.169,22.262 111.169 C 23.568 111.169,23.749 111.223,24.344 111.792 L 24.997 112.416 33.953 112.465 L 42.909 112.515 34.442 112.571 L 25.974 112.628 25.974 113.353 C 25.974 115.105,25.779 115.072,36.987 115.210 C 49.081 115.359,51.740 115.661,51.740 116.889 C 51.740 117.033,52.165 117.198,52.735 117.273 C 53.806 117.415,54.649 117.880,54.649 118.327 C 54.649 118.702,55.120 118.857,56.263 118.857 C 57.338 118.857,59.013 119.565,59.013 120.019 C 59.013 120.180,59.190 120.312,59.406 120.312 C 59.833 120.312,60.052 120.696,60.052 121.448 C 60.052 122.134,58.483 122.625,57.039 122.391 C 56.468 122.298,54.177 122.300,51.948 122.394 C 49.719 122.488,41.108 122.518,32.811 122.461 C 16.645 122.349,17.039 122.327,17.039 123.325 C 17.039 124.292,16.319 124.264,37.779 124.142 C 48.829 124.080,58.010 124.028,58.182 124.028 C 58.353 124.027,58.934 124.091,59.473 124.169 C 60.410 124.306,60.464 124.286,60.710 123.714 C 61.056 122.912,60.988 122.964,61.868 122.822 C 62.535 122.715,62.659 122.610,62.717 122.108 C 62.782 121.542,62.821 121.523,63.788 121.591 C 64.340 121.630,64.749 121.592,64.695 121.506 C 64.642 121.421,64.690 121.351,64.802 121.351 C 64.913 121.351,65.051 121.468,65.109 121.610 C 65.167 121.753,65.228 121.683,65.245 121.455 L 65.276 121.039 65.449 121.455 C 65.591 121.797,65.648 121.714,65.773 120.985 C 65.915 120.153,65.972 120.092,66.731 119.971 C 67.356 119.871,67.489 119.782,67.318 119.576 C 67.162 119.388,67.162 119.270,67.318 119.173 C 67.440 119.098,67.485 118.949,67.420 118.843 C 67.354 118.736,67.539 118.649,67.832 118.649 C 68.124 118.649,68.365 118.532,68.367 118.390 C 68.369 118.195,68.414 118.200,68.546 118.407 C 68.761 118.747,68.987 118.275,68.987 117.484 C 68.987 116.943,68.465 116.639,67.165 116.421 C 66.609 116.329,66.508 116.367,66.609 116.631 C 66.810 117.153,66.319 117.852,65.804 117.779 C 65.016 117.667,65.111 116.891,65.963 116.487 C 66.405 116.277,66.701 115.986,66.701 115.763 C 66.701 115.130,67.386 114.701,68.397 114.701 C 69.247 114.701,69.379 114.631,69.835 113.933 C 70.180 113.406,70.566 113.107,71.065 112.981 C 71.465 112.880,71.979 112.630,72.208 112.425 C 72.844 111.854,73.469 111.584,74.155 111.584 C 75.002 111.584,75.844 111.241,75.844 110.894 C 75.844 110.217,76.537 109.956,78.347 109.952 C 80.520 109.948,80.654 110.025,80.782 111.354 L 80.884 112.416 86.286 112.416 L 91.688 112.416 91.557 111.758 C 91.187 109.907,95.496 109.192,96.180 110.991 C 96.356 111.454,96.551 111.553,97.522 111.675 C 99.217 111.887,99.881 112.802,98.578 113.129 C 97.485 113.403,97.039 113.861,97.039 114.708 L 97.039 115.498 98.182 115.488 L 99.325 115.478 99.325 114.362 L 99.325 113.247 100.530 113.247 C 102.405 113.247,103.025 114.398,101.411 114.882 C 100.369 115.194,100.142 115.532,100.975 115.532 C 101.563 115.532,101.610 115.587,101.610 116.260 C 101.610 117.512,102.400 117.277,102.482 116.000 L 102.545 115.013 103.688 115.013 C 104.715 115.013,104.838 115.060,104.898 115.481 C 104.941 115.789,104.857 115.948,104.649 115.948 C 104.476 115.948,104.073 116.183,103.752 116.471 L 103.169 116.994 103.747 116.863 C 104.853 116.610,104.986 116.658,105.240 117.397 C 105.407 117.883,105.652 118.157,105.991 118.237 C 106.410 118.335,106.504 118.500,106.557 119.229 C 106.617 120.044,106.663 120.104,107.233 120.104 C 107.771 120.104,107.844 120.177,107.844 120.715 C 107.844 121.362,107.550 121.715,107.321 121.344 C 107.226 121.190,107.104 121.189,106.923 121.339 C 106.780 121.458,106.602 121.509,106.526 121.453 C 106.451 121.397,106.444 121.421,106.511 121.506 C 106.577 121.592,106.928 121.664,107.290 121.665 C 107.920 121.668,107.946 121.701,107.897 122.445 C 107.848 123.203,107.864 123.221,108.573 123.221 C 109.080 123.221,109.299 123.315,109.299 123.532 C 109.299 123.704,109.404 123.844,109.532 123.844 C 109.700 123.844,109.697 123.927,109.522 124.137 C 109.249 124.467,109.530 124.750,110.182 124.802 C 110.382 124.818,110.639 124.843,110.753 124.857 C 110.868 124.871,110.961 125.210,110.961 125.610 L 110.961 126.338 124.416 126.335 C 137.250 126.332,139.450 126.266,138.482 125.912 C 138.157 125.793,138.230 125.734,138.857 125.612 C 139.630 125.461,139.875 125.165,139.377 124.983 C 138.642 124.715,123.420 124.053,117.980 124.053 L 111.804 124.052 111.629 123.377 C 111.520 122.957,111.302 122.674,111.052 122.627 C 110.452 122.516,110.130 122.185,110.130 121.680 C 110.130 121.350,109.948 121.175,109.455 121.030 C 108.701 120.808,108.357 119.797,108.957 119.567 C 109.449 119.378,110.130 119.859,110.130 120.397 C 110.130 120.774,110.274 120.912,110.771 121.011 C 111.237 121.104,111.477 121.312,111.650 121.773 C 111.798 122.163,112.085 122.455,112.397 122.533 C 112.894 122.658,128.483 122.476,132.779 122.295 C 133.979 122.244,136.223 122.150,137.766 122.085 C 144.642 121.795,146.049 121.559,147.785 120.411 C 148.213 120.128,148.669 119.896,148.800 119.896 C 148.931 119.896,150.242 119.265,151.715 118.494 L 154.392 117.091 151.750 116.951 C 148.632 116.785,148.464 116.679,148.666 115.013 C 148.774 114.127,148.919 113.864,149.652 113.226 L 150.512 112.478 150.606 110.187 C 150.708 107.712,150.743 107.815,149.434 106.755 C 148.927 106.345,148.799 104.790,149.236 104.353 C 149.512 104.077,155.030 104.017,155.704 104.283 C 155.912 104.365,156.334 104.896,156.640 105.463 C 157.364 106.804,157.855 106.832,158.494 105.566 C 159.134 104.296,159.546 104.120,161.900 104.111 C 164.149 104.103,164.156 104.108,164.156 105.669 C 164.156 106.462,164.064 106.646,163.429 107.131 C 162.603 107.761,162.500 108.880,162.895 112.935 C 163.150 115.559,163.361 115.963,164.335 115.690 C 164.816 115.554,166.486 115.531,168.935 115.625 C 178.271 115.985,200.866 115.970,201.169 115.604 C 201.701 114.962,201.556 111.034,200.962 109.997 C 200.162 108.602,199.419 108.683,213.447 108.625 C 228.129 108.564,227.140 108.698,226.588 106.839 C 226.354 106.051,226.119 105.681,225.741 105.509 C 225.454 105.378,225.088 105.032,224.929 104.739 C 224.647 104.221,224.640 104.220,224.632 104.675 C 224.623 105.148,225.279 105.974,225.662 105.974 C 225.914 105.974,225.934 107.214,225.689 107.600 C 225.546 107.826,225.348 107.829,224.601 107.618 C 223.351 107.265,203.935 107.254,203.583 107.607 C 203.115 108.075,202.306 107.877,201.920 107.200 C 201.719 106.846,201.381 106.512,201.169 106.457 C 200.914 106.390,200.660 105.957,200.419 105.178 C 200.168 104.363,199.855 103.844,199.404 103.494 L 198.753 102.988 199.351 103.637 C 199.842 104.169,199.980 104.557,200.123 105.805 C 200.219 106.641,200.358 107.582,200.433 107.896 L 200.568 108.468 188.648 108.514 C 172.715 108.577,173.978 108.681,173.707 107.283 L 173.554 106.494 173.530 107.261 C 173.484 108.751,174.067 109.104,176.836 109.264 C 179.327 109.409,179.706 109.619,179.052 110.494 C 178.908 110.687,179.036 110.761,179.559 110.784 C 179.944 110.801,178.913 110.889,177.268 110.978 C 175.622 111.067,174.220 111.217,174.151 111.310 C 174.082 111.404,173.839 111.501,173.610 111.526 C 170.695 111.846,165.594 113.107,164.803 113.704 C 163.593 114.617,163.330 113.948,163.326 109.937 L 163.325 107.978 164.052 107.311 C 164.842 106.588,165.043 105.409,164.540 104.454 C 164.171 103.753,163.976 103.695,161.974 103.694 C 159.172 103.692,158.589 103.832,158.195 104.600 C 157.627 105.709,157.071 105.712,156.794 104.608 C 156.599 103.830,155.922 103.688,152.417 103.688 C 148.649 103.688,148.571 103.725,148.571 105.487 C 148.571 106.535,148.633 106.688,149.299 107.277 L 150.026 107.921 150.026 110.056 C 150.026 111.770,149.960 112.244,149.691 112.459 C 148.683 113.266,148.156 113.885,148.156 114.262 C 148.156 114.496,147.981 114.780,147.767 114.895 C 146.469 115.589,143.377 115.627,143.377 114.948 C 143.377 114.266,142.526 112.871,142.035 112.748 C 141.237 112.548,140.867 110.371,141.323 108.560 C 141.589 107.506,141.888 107.413,142.630 108.156 C 144.087 109.613,145.902 108.700,146.030 106.446 C 146.170 103.970,145.879 103.694,143.102 103.671 C 141.939 103.661,139.304 103.544,137.247 103.411 L 133.506 103.169 134.649 102.807 C 137.749 101.824,142.722 100.405,147.948 99.011 C 149.034 98.722,150.904 98.294,152.104 98.061 C 153.304 97.828,154.998 97.409,155.869 97.130 C 156.915 96.795,157.938 96.623,158.883 96.623 C 159.690 96.623,160.946 96.442,161.766 96.208 C 162.714 95.937,163.842 95.792,165.010 95.792 L 166.801 95.792 166.906 97.252 C 167.102 99.996,168.897 100.464,169.591 97.952 L 169.812 97.153 170.199 98.174 C 170.413 98.736,170.734 99.342,170.914 99.520 C 171.211 99.815,171.211 99.774,170.919 99.072 C 170.742 98.647,170.597 97.984,170.597 97.599 C 170.597 97.062,170.427 96.743,169.870 96.236 C 169.273 95.693,169.143 95.427,169.143 94.752 C 169.143 93.438,168.594 92.309,167.879 92.152 C 167.546 92.079,167.156 91.857,167.013 91.659 C 166.814 91.384,166.593 91.333,166.069 91.444 M46.390 93.026 C 46.590 93.079,46.917 93.079,47.117 93.026 C 47.317 92.974,47.153 92.931,46.753 92.931 C 46.353 92.931,46.190 92.974,46.390 93.026 M168.519 97.675 C 168.519 98.125,168.426 98.494,168.312 98.494 C 168.197 98.494,168.104 98.067,168.104 97.546 C 168.104 96.968,168.185 96.649,168.312 96.727 C 168.426 96.798,168.519 97.224,168.519 97.675 M251.991 98.130 C 251.941 98.387,251.901 98.177,251.901 97.662 C 251.901 97.148,251.941 96.938,251.991 97.195 C 252.040 97.452,252.040 97.873,251.991 98.130 M253.490 98.961 C 253.479 99.273,253.434 99.325,253.355 99.117 C 253.290 98.945,253.134 98.736,253.008 98.653 C 252.867 98.558,252.919 98.499,253.143 98.497 C 253.387 98.495,253.501 98.647,253.490 98.961 M62.144 100.371 C 62.414 100.516,62.544 100.804,62.542 101.254 C 62.536 102.637,63.540 102.545,48.374 102.545 L 34.604 102.545 34.324 103.128 C 34.170 103.449,33.829 103.793,33.566 103.893 C 33.303 103.993,32.883 104.362,32.634 104.713 C 32.233 105.275,32.060 105.351,31.170 105.351 C 30.159 105.351,29.506 105.711,29.506 106.267 C 29.506 106.412,29.179 106.828,28.779 107.192 C 28.223 107.698,28.052 108.019,28.052 108.553 C 28.052 109.559,27.440 110.262,26.843 109.942 C 25.956 109.468,26.444 107.013,27.426 107.013 C 27.539 107.013,27.766 106.689,27.932 106.293 C 28.131 105.815,28.416 105.527,28.781 105.436 C 29.084 105.359,29.411 105.081,29.514 104.813 C 29.615 104.546,30.070 104.093,30.524 103.806 C 30.978 103.519,31.431 103.139,31.531 102.961 C 31.630 102.783,32.147 102.523,32.678 102.383 C 33.405 102.193,33.765 101.950,34.129 101.403 L 34.614 100.675 44.580 100.621 C 50.061 100.591,55.808 100.488,57.351 100.392 C 61.450 100.136,61.703 100.135,62.144 100.371 M63.584 103.896 C 64.346 104.657,64.049 106.460,63.067 107.039 C 62.702 107.255,62.295 107.669,62.162 107.960 C 62.029 108.251,61.664 108.580,61.350 108.690 C 61.036 108.799,60.624 109.161,60.435 109.493 C 60.242 109.832,59.878 110.126,59.604 110.165 C 59.292 110.209,59.094 110.394,59.053 110.680 C 58.930 111.542,58.239 111.942,57.738 111.441 C 57.184 110.887,57.489 110.224,58.388 110.026 C 58.764 109.944,59.013 109.757,59.013 109.558 C 59.013 109.150,59.608 108.468,59.964 108.468 C 60.109 108.468,60.333 108.148,60.462 107.757 C 60.626 107.261,60.883 106.981,61.311 106.832 C 61.905 106.625,61.924 106.578,61.896 105.352 C 61.857 103.635,62.644 102.956,63.584 103.896 M126.874 104.196 C 127.300 104.779,127.265 107.420,126.819 108.357 C 126.200 109.653,124.120 109.190,123.603 107.641 C 123.495 107.316,120.935 107.140,120.243 107.410 C 119.490 107.703,119.604 108.026,120.581 108.362 C 121.639 108.725,121.975 109.046,121.971 109.688 C 121.966 110.757,121.752 111.069,120.711 111.532 C 118.642 112.450,119.225 113.297,121.861 113.202 L 123.518 113.143 124.110 112.260 C 124.860 111.142,126.284 110.949,126.720 111.906 C 127.056 112.643,127.021 115.747,126.672 116.208 C 126.187 116.847,114.023 116.755,113.570 116.110 C 112.951 115.226,113.146 113.910,114.018 113.088 C 115.373 111.810,115.228 108.476,113.760 107.188 C 112.866 106.403,112.717 104.841,113.466 104.093 C 114.107 103.451,126.399 103.545,126.874 104.196 M144.887 104.218 C 145.485 104.447,145.756 106.315,145.391 107.688 C 145.159 108.558,143.618 108.527,142.824 107.636 C 141.519 106.171,140.779 107.087,140.779 110.170 C 140.779 112.649,140.673 112.390,142.125 113.455 C 142.673 113.857,143.002 115.530,142.664 116.199 C 142.427 116.669,142.378 116.675,138.938 116.644 C 134.900 116.607,134.756 116.545,134.975 114.934 C 135.144 113.692,135.182 113.623,136.005 113.089 L 136.727 112.620 136.727 110.232 C 136.727 107.179,135.998 106.129,134.872 107.560 C 134.399 108.162,132.927 108.561,132.340 108.247 C 131.863 107.992,131.570 104.663,131.981 104.168 C 132.269 103.821,143.969 103.866,144.887 104.218 M131.285 106.234 C 131.545 108.362,131.886 108.883,133.017 108.883 C 133.820 108.883,134.972 108.389,135.226 107.935 C 135.866 106.792,136.476 108.843,136.216 111.265 C 136.098 112.368,136.000 112.604,135.581 112.795 C 134.983 113.067,134.542 113.875,134.346 115.054 C 134.160 116.175,133.730 116.321,130.391 116.400 L 127.898 116.460 127.647 115.113 C 127.509 114.372,127.392 113.340,127.386 112.819 C 127.381 112.298,127.239 111.690,127.072 111.468 C 126.647 110.906,126.680 109.841,127.152 108.916 C 127.371 108.486,127.653 107.397,127.779 106.497 C 127.904 105.596,128.028 104.846,128.055 104.829 C 128.329 104.655,129.716 104.350,130.304 104.333 L 131.050 104.312 131.285 106.234 M158.476 106.944 C 157.965 107.455,158.659 108.883,159.419 108.883 C 159.596 108.883,159.858 109.023,160.000 109.195 C 160.523 109.826,160.962 108.642,160.464 107.941 C 159.944 107.209,158.790 106.630,158.476 106.944 M124.192 110.154 C 124.547 111.929,122.883 113.089,120.623 112.643 C 119.757 112.472,119.814 112.418,121.295 112.016 C 122.294 111.745,122.487 111.472,122.670 110.070 C 122.939 108.007,123.772 108.053,124.192 110.154 M89.598 109.038 L 90.028 109.468 89.388 109.799 C 88.592 110.210,87.554 110.214,85.850 109.813 C 84.787 109.562,84.372 109.550,83.711 109.748 C 82.660 110.062,82.076 109.665,82.579 108.978 C 82.849 108.607,82.936 108.596,83.568 108.856 C 84.420 109.206,84.619 109.201,85.922 108.796 C 87.320 108.362,89.035 108.475,89.598 109.038 M227.959 108.833 C 227.310 109.358,227.644 110.784,228.629 111.685 C 229.287 112.289,229.345 112.446,229.458 113.947 C 229.582 115.576,229.918 116.400,230.686 116.948 C 231.197 117.312,231.688 118.297,231.688 118.956 C 231.688 119.348,231.841 119.549,232.259 119.708 C 232.573 119.827,232.976 120.056,233.153 120.217 C 233.560 120.585,238.414 122.300,240.208 122.710 C 245.573 123.934,248.547 124.333,254.175 124.582 L 257.025 124.708 257.432 124.040 C 257.739 123.534,257.791 123.248,257.646 122.867 C 257.541 122.590,257.454 121.831,257.453 121.181 C 257.452 119.668,257.126 118.503,256.631 118.238 C 256.215 118.015,256.112 117.654,255.863 115.532 L 255.705 114.182 255.563 115.636 C 255.485 116.436,255.350 117.816,255.264 118.701 C 255.102 120.370,254.753 120.920,254.753 119.508 L 254.753 118.703 253.498 118.456 C 252.807 118.321,251.906 117.981,251.495 117.702 C 251.084 117.424,250.391 117.099,249.954 116.982 C 249.518 116.864,249.104 116.677,249.035 116.566 C 248.967 116.455,248.556 116.364,248.123 116.364 C 247.220 116.364,246.026 115.997,246.026 115.720 C 246.026 115.617,245.613 115.532,245.108 115.532 C 244.603 115.532,243.925 115.397,243.601 115.232 C 240.802 113.803,238.047 112.623,237.509 112.623 C 237.150 112.623,236.414 112.478,235.873 112.301 C 235.146 112.064,234.669 112.029,234.050 112.168 C 233.427 112.308,233.112 112.284,232.826 112.074 C 232.231 111.640,231.121 111.715,230.857 112.208 C 230.514 112.850,230.234 112.701,230.234 111.877 C 230.234 111.305,230.137 111.104,229.818 111.021 C 229.590 110.961,229.403 110.793,229.403 110.647 C 229.403 110.501,229.262 110.328,229.091 110.263 C 228.919 110.197,228.779 109.953,228.779 109.721 C 228.779 109.309,228.897 109.298,233.714 109.285 C 237.070 109.276,239.680 109.152,241.870 108.896 L 245.091 108.520 236.750 108.494 C 229.080 108.470,228.373 108.497,227.959 108.833 M199.273 110.130 C 199.273 110.955,199.268 110.961,198.494 110.940 C 197.822 110.922,197.786 110.899,198.234 110.772 C 198.669 110.648,198.743 110.517,198.688 109.961 C 198.640 109.471,198.707 109.299,198.948 109.299 C 199.188 109.299,199.273 109.514,199.273 110.130 M17.962 110.226 C 17.990 110.753,18.381 110.992,18.399 110.494 C 18.404 110.351,18.521 110.257,18.659 110.286 C 18.796 110.314,18.909 110.186,18.909 110.001 C 18.909 109.744,18.843 109.718,18.634 109.892 C 18.446 110.048,18.291 110.052,18.146 109.907 C 18.001 109.762,17.942 109.863,17.962 110.226 M114.078 110.545 C 114.078 111.046,113.933 111.536,113.714 111.777 C 112.727 112.865,112.726 112.870,112.779 114.859 C 112.820 116.418,112.770 116.816,112.519 116.912 C 112.348 116.978,112.208 117.244,112.208 117.503 C 112.208 118.470,109.749 119.088,109.174 118.267 C 109.014 118.038,108.606 117.790,108.267 117.716 C 107.875 117.630,107.492 117.322,107.212 116.868 C 106.969 116.476,106.692 116.156,106.595 116.156 C 106.192 116.156,105.766 115.455,105.766 114.790 C 105.766 114.195,105.690 114.075,105.299 114.062 C 104.921 114.049,104.963 113.998,105.517 113.798 C 105.894 113.661,106.268 113.449,106.348 113.325 C 106.576 112.973,107.353 112.623,107.905 112.623 C 108.181 112.623,108.840 112.294,109.368 111.890 C 111.929 109.934,114.078 109.321,114.078 110.545 M152.656 110.062 C 152.488 110.231,152.482 111.527,152.647 112.141 C 152.744 112.505,153.976 113.247,154.483 113.247 C 155.454 113.247,155.087 111.278,154.013 110.729 C 153.651 110.544,153.229 110.288,153.074 110.159 C 152.920 110.031,152.731 109.987,152.656 110.062 M195.275 110.896 C 195.076 110.948,194.702 110.950,194.444 110.900 C 194.186 110.851,194.348 110.808,194.805 110.806 C 195.262 110.803,195.474 110.844,195.275 110.896 M55.331 112.170 C 55.852 112.623,55.426 112.997,54.198 113.166 C 53.348 113.282,53.208 113.244,52.991 112.839 C 52.426 111.783,54.276 111.253,55.331 112.170 M77.610 111.721 C 76.174 112.024,76.260 111.940,76.260 113.054 L 76.260 114.100 77.905 114.060 C 79.641 114.018,79.780 113.925,79.789 112.796 C 79.792 112.463,78.588 111.559,78.209 111.609 C 78.108 111.622,77.839 111.672,77.610 111.721 M94.545 112.061 C 94.260 112.206,94.038 112.485,94.052 112.681 C 94.066 112.878,94.099 113.296,94.125 113.610 L 94.171 114.182 94.338 113.662 L 94.504 113.143 94.528 113.662 C 94.547 114.077,94.592 114.119,94.753 113.870 C 94.864 113.699,94.956 113.655,94.958 113.774 C 94.960 113.893,95.242 114.011,95.584 114.037 C 96.207 114.084,96.208 114.084,96.208 112.938 C 96.208 111.672,95.771 111.441,94.545 112.061 M50.994 113.642 C 51.393 114.082,50.797 114.914,50.091 114.905 C 49.912 114.902,48.364 114.808,46.649 114.696 C 44.935 114.583,39.886 114.440,35.429 114.379 C 30.972 114.317,27.240 114.180,27.136 114.076 C 26.692 113.633,28.318 113.511,34.993 113.486 C 38.868 113.471,42.087 113.411,42.145 113.353 C 42.502 112.996,50.650 113.261,50.994 113.642 M73.184 113.496 C 73.047 113.633,72.935 114.148,72.935 114.639 L 72.935 115.532 73.818 115.529 C 75.082 115.525,75.205 115.379,75.039 114.083 C 74.972 113.564,73.563 113.117,73.184 113.496 M155.429 115.206 C 155.429 116.476,155.490 116.779,155.745 116.779 C 156.601 116.779,156.646 113.862,155.792 113.701 C 155.472 113.640,155.429 113.819,155.429 115.206 M70.078 115.145 C 69.935 115.289,69.818 115.768,69.818 116.208 L 69.818 117.009 70.896 116.946 C 71.931 116.886,71.977 116.857,72.047 116.240 C 72.155 115.283,70.726 114.488,70.078 115.145 M64.936 118.236 C 65.007 118.351,65.007 118.631,64.934 118.859 C 64.779 119.348,63.896 119.427,63.719 118.967 C 63.494 118.381,64.611 117.710,64.936 118.236 M108.260 118.753 C 108.260 118.925,108.125 119.065,107.960 119.065 C 107.613 119.065,107.379 118.768,107.573 118.574 C 107.821 118.326,108.260 118.440,108.260 118.753 M63.548 119.958 C 63.703 120.776,62.660 121.262,62.127 120.619 C 61.912 120.361,61.934 120.228,62.246 119.883 C 62.696 119.385,63.447 119.428,63.548 119.958 M61.885 121.608 C 61.812 122.115,61.178 122.352,60.828 122.002 C 60.534 121.708,61.007 121.143,61.546 121.143 C 61.847 121.143,61.934 121.263,61.885 121.608 M59.920 123.435 C 59.802 123.553,59.537 123.585,59.330 123.506 C 58.969 123.367,58.969 123.351,59.336 123.083 C 59.779 122.759,60.289 123.067,59.920 123.435 M20.052 123.198 C 20.877 123.357,20.873 123.359,19.497 123.520 C 18.119 123.680,17.547 123.576,17.775 123.206 C 17.917 122.977,18.893 122.974,20.052 123.198 M38.753 123.203 C 40.523 123.602,24.727 123.872,22.107 123.487 L 21.091 123.338 21.818 123.203 C 22.786 123.023,37.956 123.023,38.753 123.203 M53.091 123.242 C 53.319 123.257,53.170 123.334,52.760 123.415 C 52.349 123.495,51.647 123.512,51.201 123.453 L 50.390 123.345 51.117 123.202 C 51.517 123.123,52.031 123.094,52.260 123.137 C 52.488 123.180,52.862 123.227,53.091 123.242 M56.312 123.202 C 56.784 123.337,56.756 123.363,56.004 123.488 C 54.919 123.669,53.242 123.427,54.026 123.203 C 54.689 123.013,55.648 123.013,56.312 123.202 " stroke="none" fill="#aca49e" fill-rule="evenodd"></path><path id="path1" d="M323.595 81.714 C 323.503 81.857,323.055 81.981,322.597 81.989 C 321.278 82.012,318.620 82.936,317.561 83.740 C 316.532 84.522,316.233 84.987,316.762 84.987 C 316.975 84.987,317.091 85.172,317.091 85.513 L 317.091 86.039 321.338 86.017 C 324.385 86.002,325.614 85.927,325.686 85.751 C 325.758 85.574,325.790 85.578,325.802 85.766 C 325.811 85.909,325.939 86.026,326.087 86.026 C 326.283 86.026,326.363 85.551,326.382 84.258 C 326.398 83.225,326.329 82.538,326.218 82.607 C 326.112 82.673,326.026 82.588,326.026 82.419 C 326.026 82.251,326.143 82.070,326.286 82.017 C 326.492 81.942,326.490 81.863,326.277 81.638 C 326.052 81.399,325.981 81.399,325.835 81.636 C 325.689 81.872,325.643 81.872,325.548 81.634 C 325.453 81.396,325.433 81.396,325.419 81.636 C 325.406 81.866,325.342 81.871,325.091 81.662 C 324.842 81.456,324.779 81.456,324.779 81.662 C 324.779 81.869,324.716 81.869,324.468 81.662 C 324.252 81.484,324.156 81.476,324.156 81.637 C 324.156 81.765,324.057 81.870,323.936 81.870 C 323.815 81.870,323.774 81.777,323.844 81.662 C 323.915 81.548,323.925 81.455,323.867 81.455 C 323.809 81.455,323.686 81.571,323.595 81.714 M220.394 88.246 C 220.019 88.622,220.301 89.519,220.987 90.126 C 221.698 90.755,221.714 90.806,221.714 92.345 C 221.714 93.860,221.743 93.952,222.457 94.743 C 223.137 95.496,223.210 95.699,223.321 97.176 C 223.424 98.535,223.526 98.869,223.974 99.315 C 224.656 99.996,225.013 101.403,224.881 102.891 C 224.741 104.468,224.925 105.073,225.658 105.452 C 226.122 105.692,226.348 106.031,226.591 106.850 C 227.140 108.696,228.121 108.564,213.447 108.625 C 199.445 108.683,200.170 108.605,200.940 109.975 C 201.266 110.554,201.438 111.267,201.499 112.289 C 201.652 114.849,200.673 114.608,210.604 114.531 C 222.801 114.437,227.725 114.744,228.796 115.666 C 229.349 116.142,229.403 116.009,229.403 114.171 C 229.403 112.400,229.400 112.392,228.662 111.716 C 227.645 110.784,227.299 109.367,227.959 108.833 C 228.509 108.387,251.813 108.261,253.064 108.697 C 253.847 108.970,254.086 109.369,254.478 111.050 C 254.640 111.744,254.993 112.779,255.262 113.351 C 255.545 113.950,255.841 115.131,255.963 116.142 C 256.128 117.520,256.266 117.964,256.606 118.221 C 257.133 118.618,257.455 119.664,257.455 120.978 C 257.455 122.150,258.509 123.639,259.032 123.205 C 259.641 122.699,271.837 122.407,275.429 122.812 C 280.767 123.414,282.206 124.297,285.968 129.287 C 286.114 129.481,286.468 129.678,286.753 129.725 C 287.039 129.771,287.156 129.770,287.013 129.721 C 286.593 129.577,286.716 129.039,287.168 129.039 C 287.556 129.039,287.583 128.905,287.567 127.010 L 287.551 124.981 286.933 124.956 C 286.115 124.923,286.167 125.075,286.105 122.543 L 286.051 120.312 285.259 120.312 L 284.468 120.312 284.468 117.922 L 284.468 115.532 283.747 115.532 L 283.027 115.532 282.968 113.299 L 282.909 111.065 282.130 111.000 C 281.372 110.938,281.351 110.913,281.351 110.117 L 281.351 109.299 293.818 109.299 L 306.286 109.299 306.286 110.857 L 306.286 112.416 307.117 112.416 L 307.948 112.416 307.948 115.532 L 307.948 118.649 308.675 118.649 L 309.403 118.649 309.403 120.181 C 309.403 121.501,309.453 121.712,309.766 121.711 C 310.902 121.706,310.857 121.615,310.857 123.948 C 310.857 125.384,310.935 126.130,311.084 126.130 C 311.208 126.130,311.494 126.340,311.718 126.597 L 312.126 127.065 311.997 126.545 C 311.898 126.142,311.918 126.096,312.090 126.338 C 312.211 126.509,312.259 126.930,312.195 127.273 C 312.107 127.745,312.131 127.820,312.296 127.584 C 312.415 127.413,312.516 127.086,312.520 126.857 C 312.532 126.059,318.764 124.684,320.999 124.986 C 326.568 125.737,326.436 125.705,328.812 126.890 C 331.417 128.190,332.187 128.693,332.351 129.200 C 332.414 129.397,332.727 129.706,333.046 129.887 C 333.396 130.085,333.932 130.797,334.396 131.681 L 335.166 133.147 334.700 133.301 L 334.234 133.455 334.701 133.547 C 334.958 133.598,335.169 133.773,335.169 133.937 C 335.169 134.178,335.652 134.234,337.766 134.234 C 340.556 134.234,340.424 134.179,340.419 135.325 C 340.418 135.609,340.594 135.688,341.222 135.688 L 342.026 135.688 342.026 138.761 L 342.026 141.834 342.690 141.884 C 343.532 141.948,343.442 141.686,343.505 144.262 L 343.560 146.494 358.043 146.494 C 374.167 146.494,372.779 146.630,372.779 145.039 C 372.779 143.874,372.610 143.584,371.926 143.584 L 371.325 143.584 371.325 141.195 L 371.325 138.805 370.597 138.805 L 369.870 138.805 369.870 135.792 L 369.870 132.779 369.039 132.779 L 368.208 132.779 368.208 131.948 L 368.208 131.117 355.013 131.117 L 341.818 131.117 341.818 130.516 C 341.818 129.904,341.519 129.662,340.762 129.662 C 340.398 129.662,340.362 129.487,340.340 127.636 C 340.326 126.522,340.303 125.470,340.288 125.299 C 340.269 125.095,339.990 124.965,339.481 124.923 L 338.701 124.858 338.701 121.754 C 338.701 120.046,338.631 118.660,338.545 118.674 C 338.460 118.687,338.132 118.687,337.818 118.674 L 337.247 118.649 337.247 116.364 L 337.247 114.078 336.416 114.078 L 335.584 114.078 335.584 111.792 L 335.584 109.506 334.870 109.506 C 334.194 109.506,334.151 109.464,334.090 108.727 L 334.026 107.948 320.883 107.895 L 307.740 107.841 307.740 106.334 L 307.740 104.827 307.106 104.801 C 306.270 104.767,306.328 104.929,306.254 102.389 C 306.207 100.756,306.119 100.156,305.926 100.156 C 305.781 100.156,305.661 100.273,305.659 100.416 C 305.657 100.604,305.606 100.596,305.475 100.389 C 305.375 100.231,305.196 100.163,305.077 100.237 C 304.957 100.310,304.801 100.275,304.729 100.159 C 304.658 100.043,304.417 99.948,304.196 99.948 C 303.974 99.948,303.792 99.859,303.792 99.749 C 303.792 99.520,302.589 99.913,301.339 100.551 C 300.869 100.791,300.270 100.989,300.008 100.991 C 299.747 100.994,298.878 101.232,298.078 101.520 C 296.178 102.206,291.679 102.484,283.882 102.399 C 280.775 102.365,278.262 102.384,278.296 102.442 C 279.081 103.733,279.449 107.650,278.854 108.368 C 278.517 108.774,255.112 108.621,254.597 108.209 C 254.455 108.095,254.338 107.581,254.338 107.068 C 254.338 106.261,254.236 106.041,253.588 105.447 C 252.870 104.790,252.832 104.683,252.701 103.005 C 252.573 101.355,252.524 101.216,251.893 100.684 C 251.244 100.138,251.221 100.065,251.221 98.536 C 251.221 97.001,251.198 96.929,250.480 96.194 C 249.791 95.488,249.730 95.320,249.615 93.797 C 249.473 91.922,248.869 91.016,247.756 91.009 C 247.433 91.007,246.468 90.821,245.610 90.595 C 244.753 90.369,242.930 90.085,241.558 89.963 C 240.187 89.841,238.410 89.649,237.610 89.537 C 233.089 88.904,231.098 88.722,226.494 88.524 C 223.694 88.404,221.206 88.262,220.966 88.208 C 220.726 88.155,220.469 88.172,220.394 88.246 M191.377 88.534 C 190.062 88.622,188.332 88.846,187.532 89.033 C 186.732 89.219,185.049 89.512,183.792 89.683 C 182.535 89.855,180.104 90.315,178.390 90.706 C 176.675 91.098,174.852 91.475,174.338 91.546 C 173.823 91.616,172.650 91.899,171.730 92.174 C 170.809 92.450,169.851 92.675,169.600 92.675 C 168.731 92.675,168.932 95.299,169.870 96.208 C 170.432 96.752,170.597 97.080,170.597 97.649 C 170.597 98.080,170.916 99.031,171.364 99.938 C 172.013 101.251,172.145 101.753,172.221 103.196 C 172.305 104.810,172.348 104.939,173.012 105.583 C 173.555 106.109,173.714 106.434,173.714 107.014 C 173.714 108.692,172.573 108.577,188.648 108.514 L 200.568 108.468 200.433 107.896 C 200.358 107.582,200.219 106.641,200.123 105.805 C 199.985 104.601,199.838 104.170,199.415 103.727 C 198.767 103.050,198.453 101.787,198.447 99.833 C 198.442 98.433,198.409 98.335,197.714 97.662 C 197.008 96.978,196.987 96.911,196.987 95.375 C 196.987 93.886,196.950 93.757,196.360 93.192 C 195.666 92.527,195.429 91.800,195.222 89.714 L 195.084 88.312 194.425 88.343 C 194.063 88.360,192.691 88.446,191.377 88.534 M356.197 97.288 C 355.758 97.727,355.861 101.557,356.312 101.555 C 357.447 101.550,357.387 101.386,357.449 104.675 L 357.506 107.740 358.286 107.805 C 359.023 107.866,359.065 107.908,359.065 108.584 L 359.065 109.299 372.987 109.299 L 386.909 109.299 386.909 106.286 L 386.909 103.273 386.078 103.273 L 385.247 103.273 385.247 100.883 L 385.247 98.494 384.519 98.494 C 383.827 98.494,383.792 98.459,383.792 97.766 L 383.792 97.039 370.119 97.039 C 359.762 97.039,356.386 97.099,356.197 97.288 M76.883 119.494 C 76.883 120.310,76.881 120.312,76.052 120.312 C 75.243 120.312,75.221 120.331,75.221 121.030 L 75.221 121.748 73.714 121.809 L 72.208 121.870 72.143 122.649 C 72.082 123.386,72.040 123.429,71.364 123.429 C 70.688 123.429,70.649 123.467,70.649 124.143 C 70.649 124.819,70.607 124.862,69.870 124.923 C 69.133 124.984,69.087 125.029,69.026 125.766 C 68.965 126.503,68.923 126.545,68.247 126.545 C 67.569 126.545,67.532 126.583,67.532 127.273 C 67.532 127.965,67.498 128.000,66.805 128.000 C 66.095 128.000,66.078 128.020,66.078 128.831 L 66.078 129.662 65.247 129.662 L 64.416 129.662 64.416 131.221 L 64.416 132.779 63.688 132.779 L 62.961 132.779 62.961 134.234 C 62.961 135.597,62.932 135.690,62.494 135.712 C 62.236 135.725,61.886 135.749,61.714 135.764 C 61.166 135.813,61.144 144.416,61.693 144.416 C 61.914 144.416,62.131 144.524,62.176 144.657 C 62.234 144.831,62.536 144.803,63.269 144.553 C 63.826 144.363,64.528 144.208,64.828 144.208 C 65.128 144.208,65.930 144.031,66.609 143.816 C 67.288 143.601,68.452 143.262,69.195 143.064 C 69.938 142.866,71.005 142.562,71.566 142.389 C 72.128 142.216,72.992 142.063,73.487 142.050 C 74.055 142.035,74.388 141.930,74.388 141.766 C 74.389 141.623,74.577 141.506,74.805 141.506 C 75.194 141.506,75.221 141.368,75.221 139.325 L 75.221 137.143 75.948 137.143 C 76.641 137.143,76.675 137.108,76.675 136.416 C 76.675 135.713,76.702 135.688,77.457 135.688 C 78.184 135.688,78.240 135.644,78.264 135.054 C 78.296 134.272,78.310 134.258,79.128 134.196 C 79.749 134.149,79.792 134.095,79.792 133.358 L 79.792 132.571 81.101 132.571 C 82.510 132.571,82.909 132.356,82.909 131.595 C 82.909 131.117,82.912 131.117,86.026 131.117 C 89.387 131.117,89.203 131.054,89.198 132.208 C 89.197 132.521,89.408 132.571,90.728 132.571 C 91.804 132.571,92.266 132.649,92.280 132.831 C 92.291 132.974,92.315 133.325,92.332 133.610 C 92.356 134.008,92.485 134.137,92.883 134.161 C 93.169 134.179,93.553 134.202,93.737 134.213 C 93.972 134.228,94.045 134.378,93.980 134.714 C 93.867 135.306,94.265 135.660,95.116 135.725 C 95.472 135.752,95.718 135.849,95.662 135.939 C 95.606 136.030,95.694 136.104,95.858 136.104 C 96.248 136.104,96.706 136.652,96.449 136.810 C 96.342 136.876,96.139 136.791,95.998 136.621 C 95.857 136.451,95.636 136.313,95.507 136.315 C 95.378 136.317,95.413 136.409,95.584 136.519 C 95.792 136.654,95.810 136.722,95.636 136.724 C 95.494 136.726,95.377 136.814,95.377 136.920 C 95.377 137.026,95.750 137.096,96.207 137.076 C 96.831 137.048,97.038 136.952,97.038 136.690 C 97.039 136.066,97.612 135.741,100.203 134.897 C 101.606 134.440,103.543 133.776,104.507 133.422 C 105.472 133.069,106.624 132.779,107.068 132.779 L 107.874 132.779 107.823 131.584 C 107.795 130.927,107.672 130.321,107.549 130.237 C 107.397 130.134,107.409 130.083,107.584 130.081 C 107.727 130.079,107.844 129.979,107.844 129.857 C 107.844 129.736,107.681 129.653,107.481 129.673 C 106.346 129.789,106.182 129.689,106.182 128.881 C 106.182 128.154,106.138 128.098,105.548 128.074 C 104.766 128.042,104.752 128.028,104.690 127.210 C 104.642 126.588,104.588 126.545,103.852 126.545 C 103.077 126.545,103.065 126.533,103.065 125.741 C 103.065 125.114,102.985 124.938,102.701 124.939 C 101.680 124.943,101.610 124.893,101.610 124.156 C 101.610 123.446,101.591 123.429,100.779 123.429 L 99.948 123.429 99.948 122.597 C 99.948 121.786,99.931 121.766,99.221 121.766 C 98.528 121.766,98.494 121.732,98.494 121.039 L 98.494 120.312 96.948 120.312 L 95.402 120.312 95.337 119.532 L 95.273 118.753 86.078 118.714 L 76.883 118.676 76.883 119.494 M118.494 126.492 L 120.104 126.563 120.104 127.281 L 120.104 128.000 126.338 128.000 L 132.571 128.000 132.571 127.273 L 132.571 126.545 135.688 126.545 L 138.805 126.545 138.805 127.273 L 138.805 128.000 143.481 128.000 L 148.156 128.000 148.156 127.285 C 148.156 126.612,148.201 126.566,148.935 126.489 C 149.385 126.442,149.098 126.393,148.254 126.373 C 147.165 126.347,146.664 126.429,146.282 126.696 C 145.432 127.291,141.969 127.343,140.882 126.777 C 139.766 126.195,132.969 126.102,132.352 126.660 C 131.410 127.512,122.269 127.581,120.671 126.748 C 120.067 126.434,119.533 126.347,118.383 126.379 L 116.883 126.421 118.494 126.492 M125.668 126.490 C 126.157 126.534,126.905 126.533,127.330 126.489 C 127.756 126.444,127.356 126.408,126.442 126.409 C 125.527 126.410,125.179 126.446,125.668 126.490 M310.857 127.002 C 310.857 127.118,310.986 127.164,311.144 127.103 C 311.301 127.043,311.535 127.080,311.663 127.185 C 311.827 127.320,311.835 127.303,311.690 127.129 C 311.427 126.812,310.857 126.725,310.857 127.002 M125.351 127.114 C 125.894 127.157,126.782 127.157,127.325 127.114 C 127.868 127.071,127.423 127.036,126.338 127.036 C 125.252 127.036,124.808 127.071,125.351 127.114 M310.905 127.623 C 311.033 128.009,311.481 128.073,311.481 127.706 C 311.481 127.525,311.332 127.377,311.152 127.377 C 310.971 127.377,310.860 127.488,310.905 127.623 M287.788 129.979 C 287.643 130.153,287.567 130.337,287.618 130.388 C 287.669 130.439,287.868 130.297,288.061 130.072 C 288.254 129.847,288.330 129.662,288.231 129.662 C 288.132 129.662,287.933 129.805,287.788 129.979 M287.584 130.939 C 287.584 131.037,287.748 131.118,287.948 131.120 C 288.148 131.121,288.535 131.182,288.807 131.255 C 289.177 131.354,289.278 131.314,289.205 131.096 C 289.101 130.781,287.584 130.634,287.584 130.939 M290.286 131.532 C 290.286 131.810,290.147 131.948,289.870 131.948 C 289.642 131.948,289.455 131.987,289.455 132.035 C 289.455 132.312,289.736 132.779,289.902 132.779 C 290.010 132.779,290.588 133.093,291.188 133.476 C 293.415 134.901,297.734 134.919,300.599 133.514 C 302.554 132.556,303.186 131.948,302.227 131.948 C 301.853 131.948,301.714 131.836,301.714 131.532 C 301.714 131.127,301.576 131.117,296.000 131.117 C 290.424 131.117,290.286 131.127,290.286 131.532 M14.753 138.078 L 14.753 143.377 15.584 143.377 L 16.416 143.377 16.416 144.208 C 16.416 145.019,16.433 145.039,17.143 145.039 C 17.835 145.039,17.870 145.074,17.870 145.766 C 17.870 146.476,17.890 146.494,18.701 146.494 L 19.532 146.494 19.532 147.325 C 19.532 148.136,19.550 148.156,20.260 148.156 C 20.952 148.156,20.987 148.190,20.987 148.883 C 20.987 149.593,21.007 149.610,21.818 149.610 L 22.649 149.610 22.649 150.442 L 22.649 151.273 24.208 151.273 C 25.606 151.273,25.766 151.314,25.766 151.671 C 25.766 152.594,25.964 152.727,27.334 152.727 L 28.650 152.727 28.715 153.506 L 28.779 154.286 31.200 154.344 C 33.494 154.399,33.614 154.424,33.513 154.813 C 33.289 155.668,33.762 155.844,36.285 155.844 C 38.511 155.844,38.649 155.820,38.649 155.429 C 38.649 155.185,38.788 155.013,38.983 155.013 C 39.191 155.013,39.273 154.898,39.200 154.709 C 39.055 154.329,40.369 153.209,41.166 153.034 C 41.480 152.965,41.835 152.791,41.953 152.649 C 42.072 152.506,42.662 152.174,43.266 151.911 C 43.870 151.648,44.504 151.350,44.675 151.248 C 46.927 149.911,55.459 146.746,55.712 147.154 C 55.816 147.324,55.954 147.297,56.189 147.062 C 56.478 146.772,56.519 145.856,56.519 139.755 L 56.519 132.779 35.636 132.779 L 14.753 132.779 14.753 138.078 " stroke="none" fill="#1b23e1" fill-rule="evenodd"></path><path id="path2" d="M170.390 44.883 C 170.161 45.112,169.974 45.462,169.975 45.662 C 169.975 45.904,170.113 45.800,170.387 45.351 C 170.614 44.979,170.910 44.675,171.046 44.675 C 171.182 44.675,171.074 44.909,170.806 45.194 C 170.538 45.479,170.369 45.763,170.430 45.824 C 170.491 45.885,170.693 45.703,170.879 45.419 C 171.245 44.861,172.138 44.963,172.689 45.627 C 172.824 45.789,173.031 45.922,173.149 45.922 C 173.567 45.922,172.595 45.082,171.965 44.899 C 171.429 44.743,171.403 44.710,171.806 44.694 C 172.899 44.651,174.645 46.240,174.358 47.015 C 174.165 47.539,171.849 48.016,170.701 47.768 C 170.358 47.694,169.668 47.623,169.167 47.609 L 168.257 47.584 168.366 46.774 L 168.474 45.964 167.958 46.411 C 167.304 46.976,166.857 47.827,166.857 48.509 L 166.857 49.039 164.468 49.039 L 162.078 49.039 162.078 49.766 L 162.078 50.494 158.961 50.494 L 155.844 50.494 155.844 51.228 C 155.844 51.632,156.004 52.207,156.200 52.506 C 156.396 52.805,156.618 53.650,156.694 54.383 C 156.802 55.420,156.952 55.842,157.371 56.279 C 157.853 56.782,158.310 58.546,158.334 59.993 C 158.344 60.648,159.214 60.693,171.636 60.680 C 185.679 60.666,185.243 60.622,185.838 62.110 C 186.027 62.583,186.182 63.088,186.182 63.233 C 186.182 63.378,186.363 63.851,186.584 64.285 C 187.262 65.616,187.636 66.936,187.636 67.999 C 187.636 69.072,187.845 69.638,188.511 70.370 C 188.791 70.678,188.980 71.327,189.116 72.448 C 189.243 73.503,189.461 74.282,189.733 74.657 C 190.425 75.609,190.753 76.844,190.753 78.488 C 190.753 79.956,190.788 80.074,191.396 80.642 C 192.547 81.716,192.823 83.595,191.938 84.329 C 191.678 84.545,170.824 84.587,168.208 84.377 C 167.104 84.288,166.453 85.760,167.065 86.961 C 167.367 87.553,167.481 88.186,167.481 89.273 L 167.481 90.770 168.312 91.429 C 168.769 91.791,169.143 92.219,169.143 92.381 C 169.143 92.802,169.814 92.748,171.730 92.174 C 172.650 91.899,173.823 91.616,174.338 91.546 C 174.852 91.475,176.675 91.098,178.390 90.706 C 180.104 90.315,182.535 89.855,183.792 89.683 C 185.049 89.512,186.686 89.228,187.429 89.052 C 188.445 88.812,192.960 88.371,194.961 88.316 C 195.351 88.305,195.056 87.430,194.494 86.928 C 193.789 86.301,193.664 85.417,194.214 84.961 C 194.829 84.449,217.305 84.436,218.799 84.946 L 219.935 85.334 220.231 86.722 C 220.591 88.409,220.023 88.246,226.494 88.524 C 231.098 88.722,233.089 88.904,237.610 89.537 C 238.410 89.649,240.187 89.841,241.558 89.963 C 242.930 90.085,244.753 90.369,245.610 90.595 C 248.147 91.263,248.057 91.314,248.026 89.244 C 248.001 87.530,247.979 87.455,247.325 86.844 C 245.309 84.960,245.800 84.882,259.628 84.892 C 273.471 84.901,272.411 84.768,273.148 86.596 C 274.270 89.375,274.480 90.095,274.487 91.179 C 274.494 92.317,274.888 93.358,275.425 93.658 C 275.757 93.844,276.156 95.573,276.156 96.827 C 276.156 97.353,276.297 97.724,276.600 97.994 C 277.219 98.546,277.610 99.565,277.610 100.629 C 277.610 102.377,277.443 102.329,283.866 102.399 C 291.679 102.484,296.177 102.206,298.078 101.520 C 298.878 101.232,299.747 100.994,300.008 100.991 C 300.270 100.989,300.869 100.791,301.339 100.551 C 302.589 99.913,303.792 99.520,303.792 99.749 C 303.792 99.859,303.982 99.948,304.215 99.948 C 304.617 99.948,304.635 99.841,304.578 97.714 L 304.519 95.481 303.851 95.416 L 303.183 95.351 303.124 93.130 L 303.065 90.909 302.286 90.845 L 301.506 90.780 301.506 88.403 L 301.506 86.026 309.299 86.026 L 317.091 86.026 317.091 85.506 C 317.091 85.171,316.974 84.987,316.762 84.987 C 316.233 84.987,316.532 84.522,317.561 83.740 C 318.620 82.936,321.278 82.012,322.597 81.989 C 323.059 81.981,323.551 81.835,323.704 81.662 C 323.855 81.491,323.920 81.468,323.847 81.610 C 323.775 81.753,323.815 81.870,323.936 81.870 C 324.057 81.870,324.156 81.765,324.156 81.637 C 324.156 81.478,324.256 81.487,324.473 81.667 C 324.755 81.901,324.784 81.569,324.733 78.627 L 324.675 75.325 324.007 75.260 L 323.338 75.195 323.280 72.974 L 323.221 70.753 322.442 70.689 C 321.705 70.628,321.662 70.585,321.662 69.910 L 321.662 69.195 308.571 69.195 L 295.481 69.195 295.481 69.922 C 295.481 70.632,295.461 70.649,294.649 70.649 L 293.818 70.649 293.818 72.104 L 293.818 73.558 294.649 73.558 L 295.481 73.558 295.481 75.948 L 295.481 78.338 296.208 78.338 L 296.935 78.338 296.935 80.611 L 296.935 82.885 297.818 82.965 C 298.304 83.008,293.073 83.061,286.194 83.081 L 273.687 83.117 273.623 82.338 C 273.562 81.601,273.516 81.555,272.779 81.494 L 272.000 81.429 272.000 78.325 L 272.000 75.221 271.273 75.221 L 270.545 75.221 270.545 72.935 L 270.545 70.649 269.818 70.649 L 269.091 70.649 269.091 68.364 L 269.091 66.078 268.260 66.078 L 267.429 66.078 267.429 63.688 L 267.429 61.299 266.701 61.299 C 266.009 61.299,265.974 61.264,265.974 60.571 L 265.974 59.844 252.779 59.844 L 239.584 59.844 239.584 58.286 L 239.584 56.727 238.753 56.727 L 237.922 56.727 237.922 54.338 L 237.922 51.948 237.202 51.948 L 236.482 51.948 236.423 49.714 L 236.364 47.481 233.299 47.423 L 230.234 47.366 230.234 46.644 L 230.234 45.922 219.350 45.922 C 206.987 45.922,207.979 45.762,207.834 47.777 C 207.754 48.875,207.799 49.032,208.384 49.699 C 209.056 50.463,209.441 51.696,209.449 53.105 C 209.453 53.747,209.605 54.120,210.078 54.649 C 210.421 55.033,210.701 55.508,210.701 55.704 C 210.701 56.154,211.475 58.786,211.753 59.281 C 212.015 59.747,211.853 60.018,211.149 60.292 C 210.731 60.454,191.120 60.604,186.749 60.478 C 186.546 60.472,186.275 60.210,186.146 59.896 C 186.017 59.582,185.640 58.718,185.307 57.976 C 184.923 57.119,184.664 56.134,184.598 55.275 C 184.450 53.366,184.375 53.094,183.813 52.426 C 183.258 51.767,182.744 48.683,182.888 46.873 L 182.965 45.908 178.628 45.931 L 174.290 45.954 173.920 45.345 C 173.358 44.422,171.141 44.132,170.390 44.883 M168.312 48.532 C 168.312 48.942,168.206 49.039,167.760 49.039 C 167.221 49.039,167.217 49.029,167.584 48.623 C 167.791 48.395,167.894 48.208,167.812 48.208 C 167.731 48.208,167.723 48.113,167.794 47.997 C 168.003 47.659,168.312 47.979,168.312 48.532 M238.427 61.002 C 238.610 61.185,238.753 61.678,238.753 62.125 C 238.753 62.726,238.926 63.129,239.458 63.766 C 240.088 64.519,240.179 64.791,240.313 66.298 C 240.443 67.765,240.544 68.080,241.085 68.696 C 241.673 69.365,241.714 69.529,241.821 71.637 C 241.933 73.842,241.943 73.878,242.625 74.504 C 243.278 75.103,243.324 75.240,243.456 76.963 C 243.586 78.651,243.641 78.821,244.186 79.224 C 244.642 79.561,244.805 79.888,244.909 80.674 C 244.983 81.232,245.275 82.029,245.558 82.446 C 246.120 83.273,246.061 83.540,245.174 84.202 C 244.698 84.558,243.966 84.582,233.182 84.589 C 220.480 84.598,220.366 84.587,220.034 83.298 C 219.957 82.998,219.649 82.392,219.349 81.951 C 218.993 81.427,218.802 80.862,218.796 80.315 C 218.780 78.857,218.458 77.704,217.903 77.125 C 217.493 76.698,217.336 76.269,217.241 75.321 C 217.056 73.476,216.984 73.232,216.417 72.559 C 216.027 72.096,215.844 71.537,215.679 70.309 C 215.540 69.272,215.311 68.486,215.053 68.156 C 214.447 67.383,214.223 66.743,214.047 65.287 C 213.923 64.250,213.773 63.865,213.334 63.459 C 212.741 62.909,212.705 62.760,212.913 61.723 C 212.993 61.320,213.220 60.985,213.484 60.879 C 214.375 60.518,238.060 60.635,238.427 61.002 M326.026 82.377 C 326.026 82.840,326.351 82.932,326.386 82.479 C 326.402 82.258,326.328 82.078,326.221 82.078 C 326.114 82.078,326.026 82.213,326.026 82.377 M202.749 114.643 L 202.174 114.730 202.593 115.263 C 202.890 115.640,203.013 116.108,203.013 116.861 C 203.013 118.179,203.296 119.206,203.816 119.774 C 204.307 120.309,204.675 121.989,204.675 123.690 C 204.675 124.867,204.732 125.028,205.391 125.706 C 206.049 126.382,206.117 126.575,206.244 128.104 C 206.370 129.633,206.434 129.811,207.035 130.327 C 208.724 131.777,207.804 131.913,196.208 131.933 C 187.157 131.948,187.013 131.955,187.013 132.364 C 187.013 132.778,186.874 132.779,151.273 132.779 L 115.532 132.779 115.532 145.039 L 115.532 157.299 182.234 157.299 L 248.935 157.299 248.935 158.130 C 248.935 158.941,248.952 158.961,249.662 158.961 C 250.355 158.961,250.390 158.996,250.390 159.688 C 250.390 160.398,250.409 160.416,251.221 160.416 L 252.052 160.416 252.052 161.247 C 252.052 162.058,252.069 162.078,252.779 162.078 C 253.472 162.078,253.506 162.113,253.506 162.805 L 253.506 163.532 255.052 163.532 L 256.598 163.532 256.663 164.312 L 256.727 165.091 258.234 165.152 L 259.740 165.213 259.740 165.931 L 259.740 166.649 268.987 166.649 L 278.234 166.649 278.234 165.929 L 278.234 165.208 280.571 165.150 L 282.909 165.091 282.974 164.312 C 283.035 163.575,283.077 163.532,283.753 163.532 C 284.429 163.532,284.468 163.494,284.468 162.818 C 284.468 162.142,284.510 162.100,285.247 162.039 C 285.984 161.978,286.029 161.932,286.090 161.195 C 286.151 160.458,286.194 160.416,286.870 160.416 C 287.546 160.416,287.584 160.377,287.584 159.701 C 287.584 159.025,287.627 158.983,288.364 158.922 C 289.101 158.861,289.146 158.815,289.207 158.078 L 289.272 157.299 302.350 157.299 L 315.429 157.299 315.429 156.571 L 315.429 155.844 318.545 155.844 L 321.662 155.844 321.662 152.831 L 321.662 149.818 320.942 149.818 L 320.221 149.818 320.163 147.481 L 320.104 145.143 319.325 145.078 L 318.545 145.014 318.545 142.741 L 318.545 140.468 317.825 140.468 L 317.105 140.468 317.046 138.130 L 316.987 135.792 316.208 135.728 C 315.471 135.667,315.429 135.624,315.429 134.948 L 315.429 134.234 325.299 134.234 C 333.720 134.234,335.169 134.190,335.169 133.937 C 335.169 133.773,334.958 133.598,334.701 133.547 L 334.234 133.455 334.700 133.301 L 335.166 133.147 334.396 131.681 C 333.932 130.797,333.396 130.085,333.046 129.887 C 332.727 129.706,332.414 129.397,332.351 129.200 C 332.187 128.693,331.417 128.190,328.812 126.890 C 326.436 125.705,326.568 125.737,320.999 124.986 C 318.764 124.684,312.532 126.059,312.520 126.857 C 312.516 127.086,312.415 127.413,312.296 127.584 C 312.131 127.820,312.107 127.745,312.195 127.273 C 312.259 126.930,312.211 126.509,312.090 126.338 C 311.918 126.096,311.898 126.142,311.997 126.545 L 312.126 127.065 311.718 126.597 C 311.232 126.040,310.799 125.985,310.897 126.494 C 310.935 126.694,311.078 126.857,311.213 126.857 C 311.349 126.857,311.581 126.993,311.730 127.159 C 311.958 127.414,311.951 127.424,311.681 127.223 C 311.477 127.070,311.253 127.054,311.058 127.178 C 310.803 127.339,310.813 127.371,311.117 127.373 C 311.322 127.375,311.482 127.535,311.484 127.740 C 311.486 128.051,311.516 128.059,311.688 127.792 C 311.823 127.584,311.891 127.567,311.893 127.740 C 311.895 127.883,312.036 128.000,312.208 128.000 C 312.457 128.000,312.519 128.312,312.519 129.558 L 312.519 131.117 307.117 131.117 C 301.853 131.117,301.714 131.128,301.714 131.532 C 301.714 131.836,301.853 131.948,302.227 131.948 C 303.186 131.948,302.554 132.556,300.599 133.514 C 297.734 134.919,293.415 134.901,291.188 133.476 C 290.588 133.093,290.010 132.779,289.902 132.779 C 289.736 132.779,289.455 132.312,289.455 132.035 C 289.455 131.987,289.642 131.948,289.870 131.948 C 290.152 131.948,290.286 131.810,290.286 131.518 C 290.286 131.152,290.172 131.096,289.506 131.139 C 288.352 131.214,287.584 131.138,287.584 130.950 C 287.584 130.859,287.911 130.774,288.311 130.763 C 288.803 130.749,288.995 130.820,288.904 130.982 C 288.829 131.116,288.896 131.103,289.059 130.952 C 289.301 130.727,289.302 130.656,289.066 130.510 C 288.829 130.364,288.829 130.318,289.067 130.223 C 289.260 130.147,289.230 130.105,288.975 130.094 C 288.743 130.084,288.656 129.985,288.749 129.835 C 288.850 129.671,288.786 129.635,288.554 129.724 C 288.097 129.900,287.584 129.691,287.584 129.328 C 287.584 129.169,287.397 129.039,287.169 129.039 C 286.716 129.039,286.593 129.577,287.013 129.721 C 287.156 129.770,287.039 129.771,286.753 129.725 C 286.468 129.678,286.114 129.481,285.968 129.287 C 282.154 124.229,280.775 123.400,275.152 122.784 C 272.869 122.534,261.551 122.676,259.844 122.977 L 259.013 123.123 258.954 124.891 C 258.897 126.574,258.926 126.708,259.548 127.647 C 260.015 128.352,260.246 129.000,260.353 129.910 C 260.616 132.145,261.715 131.976,247.389 131.905 C 232.906 131.833,234.182 132.075,234.182 129.402 C 234.182 127.825,234.153 127.724,233.539 127.151 C 233.080 126.722,232.820 126.210,232.627 125.353 C 232.479 124.695,232.101 123.550,231.787 122.809 C 231.474 122.069,231.122 120.760,231.004 119.900 C 230.824 118.583,230.682 118.215,230.097 117.558 C 229.715 117.129,229.400 116.615,229.396 116.415 C 229.378 115.425,227.724 114.927,223.688 114.698 C 220.445 114.513,203.894 114.470,202.749 114.643 M119.517 126.533 L 118.825 126.649 119.465 127.260 L 120.104 127.870 120.104 127.208 C 120.104 126.439,120.068 126.456,120.864 126.853 C 122.232 127.535,131.428 127.444,132.276 126.739 C 132.522 126.535,132.571 126.626,132.571 127.288 L 132.571 128.082 133.311 127.365 L 134.051 126.649 133.155 126.522 C 132.045 126.363,120.464 126.373,119.517 126.533 M140.681 126.701 C 141.095 126.994,141.638 127.065,143.481 127.065 C 145.323 127.065,145.866 126.994,146.280 126.701 C 146.778 126.349,146.693 126.338,143.481 126.338 C 140.268 126.338,140.183 126.349,140.681 126.701 M151.844 126.493 L 154.182 126.559 154.182 127.280 L 154.182 128.000 161.974 128.000 L 169.766 128.000 169.766 127.285 C 169.766 126.594,169.797 126.567,170.649 126.490 C 171.135 126.446,166.577 126.414,160.519 126.418 C 154.462 126.423,150.558 126.456,151.844 126.493 M127.325 127.114 C 126.782 127.157,125.894 127.157,125.351 127.114 C 124.808 127.071,125.252 127.036,126.338 127.036 C 127.423 127.036,127.868 127.071,127.325 127.114 M105.391 133.094 C 105.013 133.258,103.111 133.924,101.165 134.574 C 96.566 136.108,97.039 135.230,97.039 142.236 L 97.039 148.131 96.260 148.195 C 95.523 148.256,95.477 148.302,95.416 149.039 C 95.355 149.776,95.313 149.818,94.637 149.818 C 93.961 149.818,93.922 149.857,93.922 150.533 C 93.922 151.209,93.880 151.251,93.143 151.312 C 92.406 151.373,92.360 151.419,92.299 152.156 C 92.238 152.893,92.196 152.935,91.520 152.935 C 90.842 152.935,90.805 152.972,90.805 153.662 L 90.805 154.390 86.130 154.390 L 81.455 154.390 81.455 153.662 C 81.455 152.952,81.435 152.935,80.623 152.935 L 79.792 152.935 79.792 152.104 C 79.792 151.293,79.775 151.273,79.065 151.273 C 78.372 151.273,78.338 151.238,78.338 150.545 C 78.338 149.835,78.318 149.818,77.506 149.818 L 76.675 149.818 76.675 148.987 C 76.675 148.176,76.658 148.156,75.948 148.156 L 75.221 148.156 75.221 144.831 C 75.221 141.645,75.203 141.506,74.805 141.506 C 74.577 141.506,74.389 141.623,74.388 141.766 C 74.388 141.930,74.055 142.035,73.487 142.050 C 72.992 142.063,72.128 142.216,71.566 142.389 C 71.005 142.562,69.938 142.866,69.195 143.064 C 68.452 143.262,67.288 143.601,66.609 143.816 C 65.930 144.031,65.128 144.208,64.828 144.208 C 64.528 144.208,63.826 144.363,63.269 144.553 C 62.536 144.803,62.234 144.831,62.176 144.657 C 62.131 144.524,61.913 144.416,61.691 144.416 C 61.308 144.416,61.289 144.557,61.344 146.961 L 61.403 149.506 62.182 149.571 L 62.961 149.635 62.961 152.013 L 62.961 154.390 63.688 154.390 L 64.416 154.390 64.416 155.844 L 64.416 157.299 65.247 157.299 L 66.078 157.299 66.078 158.130 C 66.078 158.941,66.095 158.961,66.805 158.961 C 67.498 158.961,67.532 158.996,67.532 159.688 C 67.532 160.379,67.569 160.416,68.247 160.416 C 68.923 160.416,68.965 160.458,69.026 161.195 C 69.087 161.932,69.133 161.978,69.870 162.039 C 70.607 162.100,70.649 162.142,70.649 162.818 L 70.649 163.532 72.208 163.532 L 73.766 163.532 73.766 164.364 L 73.766 165.195 75.325 165.195 L 76.883 165.195 76.883 165.922 L 76.883 166.649 86.130 166.649 L 95.377 166.649 95.377 165.931 L 95.377 165.213 96.883 165.152 L 98.390 165.091 98.454 164.312 L 98.519 163.532 100.064 163.532 L 101.610 163.532 101.610 162.805 C 101.610 162.113,101.645 162.078,102.338 162.078 C 103.048 162.078,103.065 162.058,103.065 161.247 L 103.065 160.416 103.896 160.416 C 104.707 160.416,104.727 160.398,104.727 159.688 C 104.727 158.996,104.762 158.961,105.455 158.961 C 106.165 158.961,106.182 158.941,106.182 158.130 L 106.182 157.299 107.013 157.299 L 107.844 157.299 107.844 155.844 L 107.844 154.390 108.571 154.390 L 109.299 154.390 109.299 152.000 L 109.299 149.610 110.026 149.610 L 110.753 149.610 110.753 142.649 L 110.753 135.688 110.026 135.688 L 109.299 135.688 109.299 134.234 L 109.299 132.779 107.688 132.787 C 106.764 132.792,105.785 132.923,105.391 133.094 M95.466 135.919 C 95.388 136.046,95.439 136.222,95.581 136.310 C 95.782 136.434,95.777 136.496,95.556 136.592 C 95.394 136.663,95.451 136.696,95.688 136.669 C 95.917 136.644,96.087 136.721,96.066 136.840 C 96.046 136.959,96.231 137.072,96.479 137.091 C 96.791 137.114,96.845 137.072,96.655 136.955 C 96.504 136.861,96.401 136.702,96.426 136.600 C 96.452 136.499,96.274 136.314,96.030 136.189 C 95.786 136.065,95.649 135.901,95.724 135.826 C 95.800 135.750,95.805 135.688,95.735 135.688 C 95.666 135.688,95.545 135.792,95.466 135.919 M52.977 147.823 C 49.291 149.115,45.938 150.498,44.675 151.248 C 44.504 151.350,43.870 151.648,43.266 151.911 C 42.662 152.174,42.072 152.506,41.953 152.649 C 41.835 152.791,41.480 152.965,41.166 153.034 C 40.369 153.209,39.055 154.329,39.200 154.709 C 39.273 154.898,39.191 155.013,38.983 155.013 C 38.788 155.013,38.649 155.185,38.649 155.429 C 38.649 155.733,38.788 155.844,39.169 155.844 C 39.624 155.844,39.688 155.934,39.688 156.571 L 39.688 157.299 47.377 157.299 L 55.065 157.299 55.065 156.571 C 55.065 155.879,55.100 155.844,55.792 155.844 L 56.519 155.844 56.519 151.377 C 56.519 147.378,56.393 146.282,56.033 147.169 C 55.950 147.374,55.890 147.375,55.746 147.173 C 55.608 146.978,54.945 147.134,52.977 147.823 " stroke="none" fill="#0f167c" fill-rule="evenodd"></path><path id="path3" d="M197.610 93.809 C 197.610 96.759,197.620 96.822,198.146 97.348 C 198.647 97.849,198.672 97.968,198.539 99.208 C 198.313 101.318,198.577 102.618,199.397 103.438 C 199.805 103.846,200.237 104.593,200.443 105.246 C 200.667 105.959,200.930 106.394,201.174 106.458 C 201.384 106.513,201.719 106.846,201.920 107.200 C 202.306 107.877,203.115 108.075,203.583 107.607 C 203.935 107.254,223.351 107.265,224.601 107.618 C 225.656 107.916,225.862 107.761,225.867 106.663 C 225.869 106.183,225.757 105.966,225.454 105.870 C 224.763 105.651,224.624 105.113,224.815 103.410 C 225.042 101.384,224.779 100.060,224.057 99.587 C 223.473 99.204,222.961 98.167,222.961 97.367 C 222.961 97.030,222.636 96.530,222.026 95.929 C 221.109 95.024,221.091 94.981,221.091 93.660 L 221.091 92.313 219.827 92.170 C 218.717 92.045,218.522 91.954,218.217 91.418 C 217.828 90.733,216.787 90.589,215.496 91.039 C 215.000 91.212,214.765 91.212,214.592 91.039 C 214.427 90.874,211.907 90.805,205.984 90.805 L 197.610 90.805 197.610 93.809 M161.662 96.223 C 160.907 96.446,159.682 96.622,158.882 96.623 C 157.940 96.623,156.913 96.796,155.869 97.130 C 154.998 97.409,153.304 97.828,152.104 98.061 C 150.904 98.294,149.034 98.722,147.948 99.011 C 142.722 100.405,137.749 101.824,134.649 102.807 L 133.506 103.169 137.247 103.411 C 139.304 103.544,141.939 103.661,143.102 103.671 C 145.879 103.694,146.170 103.970,146.030 106.446 C 145.902 108.700,144.087 109.613,142.630 108.156 C 141.888 107.413,141.589 107.506,141.323 108.560 C 140.867 110.371,141.237 112.548,142.035 112.748 C 142.526 112.871,143.377 114.266,143.377 114.948 C 143.377 115.627,146.469 115.589,147.767 114.895 C 147.981 114.780,148.156 114.496,148.156 114.262 C 148.156 113.885,148.683 113.266,149.691 112.459 C 149.960 112.244,150.026 111.770,150.026 110.056 L 150.026 107.921 149.299 107.277 C 148.633 106.688,148.571 106.535,148.571 105.487 C 148.571 103.725,148.649 103.688,152.417 103.688 C 155.922 103.688,156.599 103.830,156.794 104.608 C 157.071 105.712,157.627 105.709,158.195 104.600 C 158.589 103.832,159.172 103.692,161.974 103.694 C 163.976 103.695,164.171 103.753,164.540 104.454 C 165.043 105.409,164.842 106.588,164.052 107.311 L 163.325 107.978 163.326 109.937 C 163.330 113.948,163.593 114.617,164.803 113.704 C 165.594 113.107,170.695 111.846,173.610 111.526 C 173.839 111.501,174.082 111.404,174.151 111.310 C 174.220 111.217,175.622 111.067,177.268 110.978 C 178.913 110.889,179.944 110.801,179.559 110.784 C 179.036 110.761,178.908 110.687,179.052 110.494 C 179.706 109.619,179.327 109.409,176.836 109.264 C 173.958 109.098,173.378 108.713,173.560 107.093 C 173.650 106.302,173.587 106.140,172.960 105.532 C 172.308 104.900,172.259 104.760,172.251 103.492 C 172.240 101.915,171.918 100.876,171.112 99.819 C 170.796 99.406,170.375 98.637,170.175 98.110 L 169.812 97.153 169.591 97.952 C 168.897 100.464,167.102 99.996,166.906 97.252 L 166.801 95.792 164.907 95.808 C 163.690 95.818,162.530 95.966,161.662 96.223 M251.901 97.662 C 251.901 98.177,251.941 98.387,251.991 98.130 C 252.040 97.873,252.040 97.452,251.991 97.195 C 251.941 96.938,251.901 97.148,251.901 97.662 M253.008 98.653 C 253.134 98.736,253.290 98.945,253.355 99.117 C 253.434 99.325,253.479 99.273,253.490 98.961 C 253.501 98.647,253.387 98.495,253.143 98.497 C 252.919 98.499,252.867 98.558,253.008 98.653 M253.506 102.314 C 253.506 104.597,253.524 104.691,254.017 105.014 C 254.470 105.310,254.534 105.519,254.588 106.856 L 254.649 108.364 266.580 108.529 C 280.299 108.719,279.198 108.876,279.107 106.749 C 278.978 103.736,278.183 103.294,273.247 103.498 C 264.029 103.878,256.953 103.513,256.106 102.615 C 255.781 102.272,255.300 101.849,255.037 101.677 C 254.774 101.504,254.443 101.045,254.302 100.656 C 253.782 99.216,253.506 99.790,253.506 102.314 M128.831 104.576 C 128.431 104.698,128.082 104.812,128.055 104.829 C 128.028 104.846,127.904 105.596,127.779 106.497 C 127.653 107.397,127.371 108.486,127.152 108.916 C 126.680 109.841,126.647 110.906,127.072 111.468 C 127.239 111.690,127.381 112.298,127.386 112.819 C 127.392 113.340,127.509 114.372,127.647 115.113 L 127.898 116.460 130.391 116.400 C 133.730 116.321,134.160 116.175,134.346 115.054 C 134.542 113.875,134.983 113.067,135.581 112.795 C 136.000 112.604,136.098 112.368,136.216 111.265 C 136.476 108.843,135.866 106.792,135.226 107.935 C 134.972 108.389,133.820 108.883,133.017 108.883 C 131.886 108.883,131.545 108.362,131.285 106.234 L 131.050 104.312 130.304 104.333 C 129.894 104.345,129.231 104.454,128.831 104.576 M21.111 104.903 C 21.039 105.019,21.081 105.177,21.205 105.253 C 21.525 105.451,21.731 105.180,21.464 104.913 C 21.315 104.764,21.199 104.761,21.111 104.903 M123.030 108.644 C 122.903 108.881,122.741 109.522,122.670 110.070 C 122.487 111.472,122.294 111.745,121.295 112.016 C 119.814 112.418,119.757 112.472,120.623 112.643 C 123.546 113.220,125.120 111.273,123.665 108.880 C 123.274 108.238,123.252 108.229,123.030 108.644 M241.870 108.896 C 239.680 109.152,237.070 109.276,233.714 109.285 C 228.897 109.298,228.779 109.309,228.779 109.721 C 228.779 109.953,228.919 110.197,229.091 110.263 C 229.262 110.328,229.403 110.501,229.403 110.647 C 229.403 110.793,229.590 110.961,229.818 111.021 C 230.137 111.104,230.234 111.305,230.234 111.877 C 230.234 112.701,230.514 112.850,230.857 112.208 C 231.121 111.715,232.231 111.640,232.826 112.074 C 233.112 112.284,233.427 112.308,234.050 112.168 C 234.669 112.029,235.146 112.064,235.873 112.301 C 236.414 112.478,237.150 112.623,237.509 112.623 C 238.047 112.623,240.802 113.803,243.601 115.232 C 243.925 115.397,244.603 115.532,245.108 115.532 C 245.613 115.532,246.026 115.617,246.026 115.720 C 246.026 115.997,247.220 116.364,248.123 116.364 C 248.556 116.364,248.967 116.455,249.035 116.566 C 249.104 116.677,249.518 116.864,249.954 116.982 C 250.391 117.099,251.084 117.424,251.495 117.702 C 251.906 117.981,252.807 118.321,253.498 118.456 L 254.753 118.703 254.753 119.508 C 254.753 120.947,255.104 120.355,255.293 118.597 C 255.589 115.842,255.531 113.617,255.148 113.030 C 254.966 112.749,254.702 112.005,254.561 111.377 C 254.146 109.514,253.905 109.063,253.166 108.754 C 252.186 108.344,245.924 108.423,241.870 108.896 M198.688 109.961 C 198.743 110.517,198.669 110.648,198.234 110.772 C 197.786 110.899,197.822 110.922,198.494 110.940 C 199.268 110.961,199.273 110.955,199.273 110.130 C 199.273 109.514,199.188 109.299,198.948 109.299 C 198.707 109.299,198.640 109.471,198.688 109.961 M17.934 110.078 C 17.901 112.740,17.938 112.623,17.143 112.623 L 16.416 112.623 16.416 114.065 L 16.416 115.507 15.636 115.572 L 14.857 115.636 14.802 120.987 L 14.746 126.338 38.022 126.338 L 61.299 126.338 61.299 125.610 C 61.299 124.918,61.333 124.883,62.026 124.883 C 62.736 124.883,62.753 124.863,62.753 124.052 C 62.753 123.223,62.755 123.221,63.572 123.221 C 64.368 123.221,64.392 123.199,64.455 122.442 C 64.495 121.954,64.617 121.682,64.779 121.714 C 64.922 121.743,65.039 121.663,65.039 121.536 C 65.039 121.410,64.891 121.363,64.710 121.432 C 64.530 121.502,64.021 121.558,63.581 121.558 C 62.863 121.558,62.774 121.617,62.715 122.127 C 62.660 122.607,62.527 122.716,61.868 122.822 C 60.988 122.964,61.056 122.912,60.710 123.714 C 60.464 124.286,60.410 124.306,59.473 124.169 C 58.934 124.091,58.353 124.027,58.182 124.028 C 58.010 124.028,48.829 124.080,37.779 124.142 C 16.319 124.264,17.039 124.292,17.039 123.325 C 17.039 122.327,16.645 122.349,32.811 122.461 C 41.108 122.518,49.719 122.488,51.948 122.394 C 54.177 122.300,56.468 122.298,57.039 122.391 C 58.483 122.625,60.052 122.134,60.052 121.448 C 60.052 120.696,59.833 120.312,59.406 120.312 C 59.190 120.312,59.013 120.180,59.013 120.019 C 59.013 119.565,57.338 118.857,56.263 118.857 C 55.120 118.857,54.649 118.702,54.649 118.327 C 54.649 117.880,53.806 117.415,52.735 117.273 C 52.165 117.198,51.740 117.033,51.740 116.889 C 51.740 115.661,49.081 115.359,36.987 115.210 C 25.779 115.072,25.974 115.105,25.974 113.353 L 25.974 112.628 34.442 112.571 L 42.909 112.515 33.953 112.465 L 24.997 112.416 24.344 111.792 C 23.749 111.223,23.568 111.169,22.262 111.169 C 20.157 111.169,19.475 110.996,19.606 110.496 C 19.790 109.791,19.534 109.506,18.714 109.506 C 18.011 109.506,17.940 109.558,17.934 110.078 M18.909 110.026 C 18.909 110.197,18.796 110.314,18.659 110.286 C 18.521 110.257,18.404 110.343,18.399 110.476 C 18.380 110.960,18.161 110.934,18.161 110.448 C 18.161 110.174,18.229 109.991,18.313 110.043 C 18.396 110.094,18.524 110.042,18.595 109.925 C 18.782 109.624,18.909 109.665,18.909 110.026 M111.833 110.436 C 111.005 110.833,109.896 111.487,109.368 111.890 C 108.840 112.294,108.181 112.623,107.905 112.623 C 107.353 112.623,106.576 112.973,106.348 113.325 C 106.268 113.449,105.894 113.661,105.517 113.798 C 104.963 113.998,104.921 114.049,105.299 114.062 C 105.690 114.075,105.766 114.195,105.766 114.790 C 105.766 115.455,106.192 116.156,106.595 116.156 C 106.692 116.156,106.969 116.476,107.212 116.868 C 107.492 117.322,107.875 117.630,108.267 117.716 C 108.606 117.790,109.014 118.038,109.174 118.267 C 109.749 119.088,112.208 118.470,112.208 117.503 C 112.208 117.244,112.348 116.978,112.519 116.912 C 112.770 116.816,112.820 116.418,112.779 114.859 C 112.726 112.870,112.727 112.865,113.714 111.777 C 113.933 111.536,114.078 111.046,114.078 110.545 C 114.078 109.489,113.833 109.477,111.833 110.436 M194.444 110.900 C 194.702 110.950,195.076 110.948,195.275 110.896 C 195.474 110.844,195.262 110.803,194.805 110.806 C 194.348 110.808,194.186 110.851,194.444 110.900 M100.196 116.253 C 100.170 116.947,100.196 116.973,100.890 116.947 C 101.563 116.921,101.610 116.874,101.610 116.226 C 101.610 115.133,100.237 115.159,100.196 116.253 M103.948 116.805 C 102.872 117.114,102.915 118.649,104.000 118.649 C 104.693 118.649,104.727 118.684,104.727 119.377 C 104.727 120.087,104.747 120.104,105.558 120.104 C 106.387 120.104,106.567 120.411,106.423 121.584 C 106.414 121.656,106.685 121.690,107.025 121.661 C 107.420 121.628,107.715 121.731,107.842 121.947 C 107.950 122.133,108.042 122.184,108.046 122.061 C 108.049 121.937,107.985 121.768,107.902 121.686 C 107.820 121.604,107.780 121.214,107.814 120.820 C 107.872 120.148,107.837 120.104,107.249 120.104 C 106.660 120.104,106.617 120.050,106.557 119.229 C 106.504 118.500,106.410 118.335,105.991 118.237 C 105.653 118.158,105.410 117.886,105.249 117.410 C 104.974 116.592,104.865 116.541,103.948 116.805 M109.370 124.295 C 109.408 124.542,109.602 124.769,109.802 124.798 C 110.136 124.847,110.139 124.822,109.836 124.487 C 109.654 124.286,109.568 124.060,109.645 123.983 C 109.721 123.907,109.675 123.844,109.542 123.844 C 109.410 123.844,109.332 124.047,109.370 124.295 " stroke="none" fill="#ddd6df" fill-rule="evenodd"></path><path id="path4" d="M185.610 44.396 C 185.468 44.455,185.351 44.817,185.351 45.202 L 185.351 45.901 184.156 45.964 L 182.961 46.026 182.892 46.961 C 182.759 48.771,183.265 51.776,183.813 52.426 C 184.375 53.094,184.450 53.366,184.598 55.275 C 184.664 56.134,184.923 57.119,185.307 57.976 C 185.640 58.718,186.017 59.582,186.146 59.896 C 186.275 60.210,186.546 60.472,186.749 60.478 C 191.120 60.604,210.731 60.454,211.149 60.292 C 211.853 60.018,212.015 59.747,211.753 59.281 C 211.475 58.786,210.701 56.154,210.701 55.704 C 210.701 55.508,210.421 55.033,210.078 54.649 C 209.605 54.120,209.453 53.747,209.449 53.105 C 209.441 51.696,209.056 50.463,208.384 49.699 C 207.636 48.847,207.584 46.934,208.287 46.157 C 208.522 45.897,208.629 45.506,208.586 45.058 L 208.519 44.364 197.195 44.327 C 190.966 44.307,185.753 44.338,185.610 44.396 M170.412 45.332 C 170.109 45.865,169.671 46.021,168.802 45.904 C 168.563 45.872,168.318 46.430,168.315 47.013 C 168.312 47.543,168.375 47.586,169.195 47.609 C 169.681 47.623,170.358 47.694,170.701 47.768 C 173.146 48.295,175.073 47.129,173.861 45.855 C 172.562 44.488,171.025 44.255,170.412 45.332 M170.886 45.409 C 170.696 45.698,170.492 45.886,170.432 45.826 C 170.332 45.726,170.977 44.883,171.154 44.883 C 171.196 44.883,171.075 45.120,170.886 45.409 M172.820 45.396 C 173.140 45.678,173.291 45.912,173.155 45.916 C 173.019 45.919,172.844 45.819,172.767 45.694 C 172.689 45.568,172.333 45.338,171.975 45.182 C 171.434 44.947,171.401 44.898,171.781 44.891 C 172.031 44.887,172.499 45.114,172.820 45.396 M167.794 47.997 C 167.723 48.113,167.731 48.208,167.812 48.208 C 167.894 48.208,167.791 48.395,167.584 48.623 C 167.217 49.029,167.221 49.039,167.760 49.039 C 168.206 49.039,168.312 48.942,168.312 48.532 C 168.312 47.979,168.003 47.659,167.794 47.997 M151.532 52.086 C 151.390 52.143,151.273 52.510,151.273 52.900 L 151.273 53.610 148.987 53.610 L 146.701 53.610 146.701 54.329 L 146.701 55.047 145.195 55.108 L 143.688 55.169 143.624 55.948 L 143.559 56.727 141.308 56.727 C 138.933 56.727,138.805 56.781,138.805 57.774 C 138.805 58.113,138.611 58.171,137.299 58.225 L 135.792 58.286 135.728 59.065 L 135.663 59.844 134.243 59.844 C 132.761 59.844,132.571 59.964,132.571 60.900 C 132.571 61.265,132.405 61.299,130.614 61.299 C 128.175 61.299,128.000 61.363,128.000 62.256 L 128.000 62.961 126.568 62.961 C 125.075 62.961,124.883 63.080,124.883 64.008 C 124.883 64.347,124.689 64.405,123.377 64.458 L 121.870 64.519 121.806 65.290 L 121.742 66.060 120.248 66.121 L 118.753 66.182 118.688 66.857 L 118.623 67.532 117.204 67.532 C 115.691 67.532,115.532 67.642,115.532 68.692 C 115.532 69.128,115.436 69.195,114.805 69.195 C 114.114 69.195,114.078 69.231,114.078 69.913 L 114.078 70.631 112.571 70.692 L 111.065 70.753 111.000 71.429 L 110.935 72.104 109.718 72.104 C 108.066 72.104,107.844 72.217,107.844 73.061 L 107.844 73.766 106.412 73.766 C 104.919 73.766,104.727 73.885,104.727 74.813 C 104.727 75.152,104.533 75.210,103.221 75.264 L 101.714 75.325 101.650 76.104 L 101.585 76.883 100.166 76.883 C 98.686 76.883,98.494 77.004,98.494 77.930 C 98.494 78.269,98.300 78.327,96.987 78.381 L 95.481 78.442 95.416 79.221 L 95.352 80.000 92.373 80.000 C 89.209 80.000,89.143 80.021,89.143 81.051 C 89.143 81.421,88.915 81.449,85.351 81.502 L 81.558 81.558 81.494 82.338 L 81.429 83.117 79.688 83.117 C 78.596 83.117,77.891 83.206,77.798 83.357 C 77.706 83.505,77.741 83.540,77.890 83.448 C 78.022 83.367,78.130 83.399,78.130 83.520 C 78.130 83.641,77.946 83.740,77.721 83.740 C 77.443 83.740,77.350 83.641,77.431 83.429 C 77.569 83.069,77.186 83.002,76.973 83.348 C 76.894 83.475,76.945 83.650,77.086 83.738 C 77.269 83.850,77.277 83.937,77.113 84.038 C 76.796 84.234,76.824 84.712,77.160 84.841 C 77.313 84.900,77.437 84.816,77.437 84.656 C 77.437 84.495,77.354 84.364,77.252 84.364 C 77.150 84.364,77.124 84.270,77.195 84.156 C 77.265 84.042,77.741 83.948,78.251 83.948 L 79.180 83.948 78.857 84.571 C 78.491 85.279,78.374 85.324,78.049 84.880 C 77.864 84.628,77.813 84.718,77.792 85.336 C 77.739 86.869,74.359 87.632,73.179 86.376 C 72.619 85.780,72.611 85.610,73.143 85.610 C 73.448 85.610,73.558 85.472,73.558 85.091 C 73.558 84.597,73.500 84.572,72.364 84.575 C 71.076 84.578,70.594 84.760,70.658 85.217 C 70.803 86.248,70.901 86.221,66.857 86.281 L 63.065 86.338 63.000 87.006 L 62.936 87.675 60.611 87.734 L 58.286 87.792 58.222 88.566 L 58.157 89.340 55.105 89.397 L 52.052 89.455 51.987 90.130 L 51.922 90.805 49.775 90.805 C 47.512 90.805,47.377 90.864,47.377 91.856 C 47.377 92.221,47.159 92.253,44.312 92.306 L 41.247 92.364 41.225 93.153 C 41.193 94.363,41.881 94.647,43.846 94.233 C 44.660 94.062,45.595 93.922,45.923 93.922 C 46.562 93.922,46.928 93.611,46.495 93.437 C 46.351 93.379,46.449 93.324,46.712 93.315 C 46.974 93.306,47.442 93.426,47.751 93.583 C 48.059 93.739,48.943 93.915,49.714 93.974 C 50.486 94.034,51.334 94.225,51.600 94.399 C 51.867 94.573,52.591 94.863,53.211 95.042 C 53.831 95.222,54.899 95.647,55.584 95.987 C 56.270 96.326,57.528 96.912,58.379 97.289 C 59.230 97.666,60.212 98.137,60.561 98.337 C 62.455 99.422,67.571 101.869,68.468 102.120 C 69.039 102.280,70.208 102.611,71.065 102.857 C 75.708 104.189,81.597 102.873,89.455 98.748 C 91.675 97.582,96.418 95.379,98.295 94.642 C 100.565 93.751,103.139 93.713,106.494 94.524 C 107.408 94.745,108.670 95.025,109.299 95.146 C 109.927 95.268,111.540 95.601,112.883 95.886 C 114.226 96.171,117.125 96.711,119.325 97.085 L 123.325 97.766 130.900 97.725 C 138.468 97.684,141.323 97.520,145.039 96.915 C 148.787 96.304,153.347 95.355,154.542 94.937 C 155.201 94.707,156.582 94.295,157.610 94.021 C 158.639 93.748,160.168 93.281,161.009 92.984 C 161.850 92.686,163.019 92.389,163.607 92.323 C 164.194 92.258,164.832 92.068,165.024 91.902 C 165.640 91.367,166.759 91.224,167.023 91.647 C 167.150 91.849,167.530 92.075,167.869 92.150 C 168.325 92.250,168.568 92.484,168.803 93.052 L 169.121 93.818 169.132 92.953 C 169.142 92.185,169.048 92.012,168.312 91.429 L 167.481 90.770 167.481 89.273 C 167.481 88.186,167.367 87.553,167.065 86.961 C 166.453 85.760,167.104 84.288,168.208 84.377 C 170.824 84.587,191.678 84.545,191.938 84.329 C 192.823 83.595,192.547 81.716,191.396 80.642 C 190.788 80.074,190.753 79.956,190.753 78.488 C 190.753 76.844,190.425 75.609,189.733 74.657 C 189.461 74.282,189.243 73.503,189.116 72.448 C 188.980 71.327,188.791 70.678,188.511 70.370 C 187.845 69.638,187.636 69.072,187.636 67.999 C 187.636 66.936,187.262 65.616,186.584 64.285 C 186.363 63.851,186.182 63.378,186.182 63.233 C 186.182 63.088,186.027 62.583,185.838 62.110 C 185.243 60.622,185.679 60.666,171.636 60.680 C 159.214 60.693,158.344 60.648,158.334 59.993 C 158.310 58.546,157.853 56.782,157.371 56.279 C 156.952 55.842,156.802 55.420,156.694 54.383 C 156.463 52.147,156.222 51.945,153.813 51.964 C 152.702 51.973,151.675 52.028,151.532 52.086 M213.484 60.879 C 213.220 60.985,212.993 61.320,212.913 61.723 C 212.705 62.760,212.741 62.909,213.334 63.459 C 213.773 63.865,213.923 64.250,214.047 65.287 C 214.223 66.743,214.447 67.383,215.053 68.156 C 215.311 68.486,215.540 69.272,215.679 70.309 C 215.844 71.537,216.027 72.096,216.417 72.559 C 216.984 73.232,217.056 73.476,217.241 75.321 C 217.336 76.269,217.493 76.698,217.903 77.125 C 218.458 77.704,218.780 78.857,218.796 80.315 C 218.802 80.862,218.993 81.427,219.349 81.951 C 219.649 82.392,219.957 82.998,220.034 83.298 C 220.366 84.587,220.480 84.598,233.182 84.589 C 243.966 84.582,244.698 84.558,245.174 84.202 C 246.061 83.540,246.120 83.273,245.558 82.446 C 245.275 82.029,244.983 81.232,244.909 80.674 C 244.805 79.888,244.642 79.561,244.186 79.224 C 243.641 78.821,243.586 78.651,243.456 76.963 C 243.324 75.240,243.278 75.103,242.625 74.504 C 241.943 73.878,241.933 73.842,241.821 71.637 C 241.714 69.529,241.673 69.365,241.085 68.696 C 240.544 68.080,240.443 67.765,240.313 66.298 C 240.179 64.791,240.088 64.519,239.458 63.766 C 238.926 63.129,238.753 62.726,238.753 62.125 C 238.753 60.589,239.504 60.674,226.011 60.688 C 219.362 60.696,213.725 60.781,213.484 60.879 M152.770 69.039 L 152.831 70.545 153.610 70.610 L 154.390 70.674 154.390 72.116 L 154.390 73.558 155.108 73.558 L 155.826 73.558 155.887 75.065 L 155.948 76.571 156.718 76.635 L 157.489 76.699 157.550 78.194 L 157.610 79.688 158.286 79.753 L 158.961 79.819 158.961 81.035 C 158.961 82.688,159.074 82.909,159.918 82.909 C 160.581 82.909,160.623 82.951,160.623 83.614 C 160.623 84.332,160.885 84.571,161.670 84.571 C 162.010 84.571,162.068 84.765,162.121 86.078 L 162.182 87.584 162.961 87.649 C 163.719 87.712,163.740 87.736,163.740 88.532 L 163.740 89.351 141.207 89.351 L 118.674 89.351 118.610 88.571 C 118.549 87.837,118.501 87.789,117.779 87.728 C 117.084 87.671,117.006 87.602,116.947 87.001 C 116.891 86.420,116.799 86.330,116.208 86.273 C 115.384 86.193,115.120 84.571,115.931 84.571 C 116.723 84.571,116.987 84.334,116.987 83.623 L 116.987 82.927 118.494 82.866 L 120.000 82.805 120.065 82.130 L 120.130 81.455 121.347 81.455 C 122.995 81.455,123.221 81.340,123.221 80.506 L 123.221 79.810 124.727 79.749 L 126.234 79.688 126.299 79.013 L 126.364 78.338 127.581 78.338 C 129.229 78.338,129.455 78.224,129.455 77.389 L 129.455 76.694 130.961 76.632 L 132.468 76.571 132.533 75.896 L 132.598 75.221 134.017 75.221 C 135.530 75.221,135.688 75.111,135.688 74.061 C 135.688 73.574,135.737 73.558,137.247 73.558 L 138.805 73.558 138.805 72.831 L 138.805 72.104 140.238 72.104 C 141.733 72.104,141.922 71.986,141.922 71.048 C 141.922 70.683,142.088 70.649,143.879 70.649 C 146.313 70.649,146.494 70.584,146.494 69.701 L 146.494 69.005 148.000 68.944 L 149.506 68.883 149.572 68.208 L 149.637 67.532 151.173 67.532 L 152.709 67.532 152.770 69.039 M194.909 84.724 C 193.686 84.948,193.482 86.027,194.494 86.928 C 195.027 87.404,195.117 87.632,195.117 88.509 C 195.117 90.031,195.477 89.973,195.643 88.423 C 195.723 87.683,195.894 86.991,196.024 86.887 C 197.004 86.097,213.574 85.866,218.553 86.572 C 219.500 86.707,220.036 87.337,220.066 88.353 C 220.080 88.829,220.081 88.829,220.294 88.390 C 220.826 87.291,220.042 85.368,218.898 84.965 C 217.910 84.618,196.651 84.403,194.909 84.724 M247.949 84.976 C 246.510 85.330,246.318 85.903,247.325 86.844 C 247.972 87.449,248.001 87.542,248.019 89.123 C 248.037 90.741,248.052 90.784,248.798 91.488 C 249.588 92.233,249.905 91.967,249.253 91.105 C 249.086 90.883,248.945 90.406,248.942 90.046 L 248.935 89.390 250.234 89.507 C 255.506 89.980,261.105 93.707,263.930 98.624 C 264.561 99.722,264.975 100.197,265.533 100.465 C 267.737 101.523,270.416 101.835,272.874 101.322 C 274.962 100.885,276.987 100.870,276.987 101.291 C 276.987 101.640,278.179 103.065,278.471 103.065 C 278.577 103.065,278.427 102.716,278.137 102.289 C 277.775 101.756,277.610 101.234,277.610 100.620 C 277.610 99.565,277.218 98.544,276.600 97.994 C 276.297 97.724,276.156 97.353,276.156 96.827 C 276.156 95.573,275.757 93.844,275.425 93.658 C 274.888 93.358,274.494 92.317,274.487 91.179 C 274.483 90.573,274.308 89.610,274.097 89.039 C 273.139 86.434,272.569 85.218,272.246 85.081 C 271.755 84.874,248.772 84.775,247.949 84.976 M47.117 93.026 C 46.917 93.079,46.590 93.079,46.390 93.026 C 46.190 92.974,46.353 92.931,46.753 92.931 C 47.153 92.931,47.317 92.974,47.117 93.026 M36.667 94.144 C 36.591 94.266,36.580 94.415,36.641 94.476 C 36.790 94.625,37.195 94.363,37.195 94.118 C 37.195 93.852,36.836 93.870,36.667 94.144 M36.710 94.892 C 36.471 95.131,36.559 95.377,36.883 95.377 C 37.055 95.377,37.195 95.236,37.195 95.065 C 37.195 94.740,36.949 94.653,36.710 94.892 M168.104 97.546 C 168.104 98.067,168.197 98.494,168.312 98.494 C 168.426 98.494,168.519 98.125,168.519 97.675 C 168.519 97.224,168.426 96.798,168.312 96.727 C 168.185 96.649,168.104 96.968,168.104 97.546 M57.351 100.392 C 55.808 100.488,50.061 100.591,44.580 100.621 L 34.614 100.675 34.129 101.403 C 33.765 101.950,33.405 102.193,32.678 102.383 C 32.147 102.523,31.630 102.783,31.531 102.961 C 31.431 103.139,30.978 103.519,30.524 103.806 C 30.070 104.093,29.615 104.546,29.514 104.813 C 29.411 105.081,29.084 105.359,28.781 105.436 C 28.416 105.527,28.131 105.815,27.932 106.293 C 27.766 106.689,27.539 107.013,27.426 107.013 C 26.444 107.013,25.956 109.468,26.843 109.942 C 27.440 110.262,28.052 109.559,28.052 108.553 C 28.052 108.019,28.223 107.698,28.779 107.192 C 29.179 106.828,29.506 106.412,29.506 106.267 C 29.506 105.711,30.159 105.351,31.170 105.351 C 32.060 105.351,32.233 105.275,32.634 104.713 C 32.883 104.362,33.303 103.993,33.566 103.893 C 33.829 103.793,34.170 103.449,34.324 103.128 L 34.604 102.545 48.374 102.545 C 63.540 102.545,62.536 102.637,62.542 101.254 C 62.548 100.094,62.434 100.075,57.351 100.392 M62.258 103.790 C 61.944 104.028,61.873 104.334,61.896 105.352 C 61.924 106.578,61.905 106.625,61.311 106.832 C 60.883 106.981,60.626 107.261,60.462 107.757 C 60.333 108.148,60.109 108.468,59.964 108.468 C 59.608 108.468,59.013 109.150,59.013 109.558 C 59.013 109.757,58.764 109.944,58.388 110.026 C 57.489 110.224,57.184 110.887,57.738 111.441 C 58.239 111.942,58.930 111.542,59.053 110.680 C 59.094 110.394,59.292 110.209,59.604 110.165 C 59.878 110.126,60.242 109.832,60.435 109.493 C 60.624 109.161,61.036 108.799,61.350 108.690 C 61.664 108.580,62.029 108.251,62.162 107.960 C 62.295 107.669,62.702 107.255,63.067 107.039 C 64.049 106.460,64.346 104.657,63.584 103.896 C 63.097 103.409,62.794 103.384,62.258 103.790 M113.466 104.093 C 112.717 104.841,112.866 106.403,113.760 107.188 C 115.228 108.476,115.373 111.810,114.018 113.088 C 113.146 113.910,112.951 115.226,113.570 116.110 C 114.023 116.755,126.187 116.847,126.672 116.208 C 127.021 115.747,127.056 112.643,126.720 111.906 C 126.284 110.949,124.860 111.142,124.110 112.260 L 123.518 113.143 121.861 113.202 C 119.225 113.297,118.642 112.450,120.711 111.532 C 121.752 111.069,121.966 110.757,121.971 109.688 C 121.975 109.046,121.639 108.725,120.581 108.362 C 119.604 108.026,119.490 107.703,120.243 107.410 C 120.935 107.140,123.495 107.316,123.603 107.641 C 124.120 109.190,126.200 109.653,126.819 108.357 C 127.265 107.420,127.300 104.779,126.874 104.196 C 126.399 103.545,114.107 103.451,113.466 104.093 M131.981 104.168 C 131.570 104.663,131.863 107.992,132.340 108.247 C 132.927 108.561,134.399 108.162,134.872 107.560 C 135.998 106.129,136.727 107.179,136.727 110.232 L 136.727 112.620 136.005 113.089 C 135.182 113.623,135.144 113.692,134.975 114.934 C 134.756 116.545,134.900 116.607,138.938 116.644 C 142.378 116.675,142.427 116.669,142.664 116.199 C 143.002 115.530,142.673 113.857,142.125 113.455 C 140.673 112.390,140.779 112.649,140.779 110.170 C 140.779 107.087,141.519 106.171,142.824 107.636 C 143.618 108.527,145.159 108.558,145.391 107.688 C 145.756 106.315,145.485 104.447,144.887 104.218 C 143.969 103.866,132.269 103.821,131.981 104.168 M149.236 104.353 C 148.799 104.790,148.927 106.345,149.434 106.755 C 150.743 107.815,150.708 107.712,150.606 110.187 L 150.512 112.478 149.652 113.226 C 148.919 113.864,148.774 114.127,148.666 115.013 C 148.464 116.679,148.632 116.785,151.750 116.951 L 154.392 117.091 151.715 118.494 C 150.242 119.265,148.931 119.896,148.800 119.896 C 148.669 119.896,148.213 120.128,147.785 120.411 C 146.049 121.559,144.642 121.795,137.766 122.085 C 136.223 122.150,133.979 122.244,132.779 122.295 C 128.483 122.476,112.894 122.658,112.397 122.533 C 112.085 122.455,111.798 122.163,111.650 121.773 C 111.477 121.312,111.237 121.104,110.771 121.011 C 110.274 120.912,110.130 120.774,110.130 120.397 C 110.130 119.859,109.449 119.378,108.957 119.567 C 108.357 119.797,108.701 120.808,109.455 121.030 C 109.948 121.175,110.130 121.350,110.130 121.680 C 110.130 122.185,110.452 122.516,111.052 122.627 C 111.302 122.674,111.520 122.957,111.629 123.377 L 111.804 124.052 117.980 124.053 C 123.420 124.053,138.642 124.715,139.377 124.983 C 139.875 125.165,139.630 125.461,138.857 125.612 C 138.212 125.738,138.149 125.791,138.494 125.919 L 138.909 126.074 138.494 126.182 C 138.265 126.241,148.383 126.300,160.978 126.314 L 183.878 126.338 183.939 127.844 L 184.000 129.351 184.675 129.416 C 185.289 129.475,185.351 129.544,185.351 130.173 C 185.351 130.903,185.613 131.117,186.511 131.117 C 186.874 131.117,187.013 131.231,187.013 131.532 C 187.013 131.962,203.737 132.173,206.316 131.777 C 207.626 131.575,207.884 131.056,207.035 130.327 C 206.434 129.811,206.370 129.633,206.244 128.104 C 206.117 126.575,206.049 126.382,205.391 125.706 C 204.732 125.028,204.675 124.867,204.675 123.690 C 204.675 121.989,204.307 120.309,203.816 119.774 C 203.297 119.207,203.013 118.180,203.013 116.870 C 203.013 116.000,202.895 115.663,202.339 114.939 L 201.666 114.063 201.489 114.746 C 201.158 116.028,202.108 115.956,186.832 115.861 C 179.103 115.813,171.049 115.707,168.935 115.625 C 166.486 115.531,164.816 115.554,164.335 115.690 C 163.361 115.963,163.150 115.559,162.895 112.935 C 162.500 108.880,162.603 107.761,163.429 107.131 C 164.064 106.646,164.156 106.462,164.156 105.669 C 164.156 104.108,164.149 104.103,161.900 104.111 C 159.546 104.120,159.134 104.296,158.494 105.566 C 157.855 106.832,157.364 106.804,156.640 105.463 C 156.334 104.896,155.912 104.365,155.704 104.283 C 155.030 104.017,149.512 104.077,149.236 104.353 M159.712 107.266 C 160.524 107.889,160.617 108.048,160.620 108.831 C 160.624 109.562,160.409 109.688,160.000 109.195 C 159.858 109.023,159.596 108.883,159.419 108.883 C 158.898 108.883,158.338 108.238,158.338 107.639 C 158.338 106.669,158.779 106.549,159.712 107.266 M85.922 108.796 C 84.619 109.201,84.420 109.206,83.568 108.856 C 82.936 108.596,82.849 108.607,82.579 108.978 C 82.076 109.665,82.660 110.062,83.711 109.748 C 84.372 109.550,84.787 109.562,85.850 109.813 C 87.554 110.214,88.592 110.210,89.388 109.799 L 90.028 109.468 89.598 109.038 C 89.035 108.475,87.320 108.362,85.922 108.796 M76.175 110.317 C 75.993 110.518,75.844 110.794,75.844 110.931 C 75.844 111.245,74.968 111.584,74.155 111.584 C 73.469 111.584,72.844 111.854,72.208 112.425 C 71.979 112.630,71.465 112.880,71.065 112.981 C 70.566 113.107,70.180 113.406,69.835 113.933 C 69.374 114.638,69.253 114.701,68.361 114.701 C 67.344 114.701,66.701 115.126,66.701 115.799 C 66.701 115.984,66.369 116.294,65.963 116.487 C 65.111 116.891,65.016 117.667,65.804 117.779 C 66.307 117.850,66.811 117.158,66.620 116.659 C 66.471 116.271,67.025 116.276,68.156 116.675 C 69.584 117.179,69.818 117.112,69.818 116.197 C 69.818 114.941,70.396 114.617,71.556 115.222 C 72.631 115.783,72.935 115.651,72.935 114.623 C 72.935 113.300,73.346 113.031,74.461 113.622 C 75.901 114.384,76.260 114.271,76.260 113.053 C 76.260 111.950,76.261 111.949,77.714 111.708 C 78.243 111.621,78.612 111.700,79.065 112.000 C 80.297 112.816,80.901 112.589,80.782 111.354 C 80.654 110.023,80.528 109.952,78.316 109.952 C 76.852 109.952,76.442 110.022,76.175 110.317 M154.013 110.729 C 155.087 111.278,155.454 113.247,154.483 113.247 C 153.976 113.247,152.744 112.505,152.647 112.141 C 152.311 110.892,152.561 109.733,153.074 110.159 C 153.229 110.288,153.651 110.544,154.013 110.729 M91.743 110.615 C 90.797 112.059,92.634 113.063,94.470 112.105 C 95.758 111.434,96.208 111.649,96.208 112.935 C 96.208 114.227,96.453 114.375,97.435 113.676 C 97.745 113.455,98.252 113.211,98.560 113.134 C 99.880 112.802,99.230 111.888,97.522 111.675 C 96.551 111.553,96.356 111.454,96.180 110.991 C 95.780 109.938,92.376 109.650,91.743 110.615 M53.092 111.999 C 52.445 112.714,53.026 113.326,54.198 113.166 C 55.426 112.997,55.852 112.623,55.331 112.170 C 54.725 111.643,53.499 111.549,53.092 111.999 M42.145 113.353 C 42.087 113.411,38.868 113.471,34.993 113.486 C 28.318 113.511,26.692 113.633,27.136 114.076 C 27.240 114.180,30.972 114.317,35.429 114.379 C 39.886 114.440,44.935 114.583,46.649 114.696 C 48.364 114.808,49.912 114.902,50.091 114.905 C 50.797 114.914,51.393 114.082,50.994 113.642 C 50.650 113.261,42.502 112.996,42.145 113.353 M99.325 114.390 C 99.325 115.713,99.528 115.808,100.883 115.117 C 101.331 114.888,101.819 114.701,101.966 114.701 C 102.304 114.701,102.317 113.829,101.984 113.496 C 101.847 113.359,101.193 113.247,100.530 113.247 L 99.325 113.247 99.325 114.390 M156.346 114.753 C 156.558 115.849,156.282 116.779,155.745 116.779 C 155.490 116.779,155.429 116.476,155.429 115.206 C 155.429 113.281,156.006 112.995,156.346 114.753 M229.424 115.688 C 229.405 116.645,229.487 116.873,230.097 117.558 C 230.682 118.215,230.824 118.583,231.004 119.900 C 231.122 120.760,231.474 122.069,231.787 122.809 C 232.101 123.550,232.479 124.695,232.627 125.353 C 232.820 126.210,233.080 126.722,233.539 127.151 C 234.153 127.724,234.182 127.825,234.182 129.402 C 234.182 132.075,232.906 131.833,247.389 131.905 C 261.715 131.976,260.616 132.145,260.353 129.910 C 260.246 129.004,260.015 128.352,259.556 127.658 C 258.977 126.785,258.909 126.519,258.909 125.132 C 258.909 123.653,258.876 123.546,258.182 122.778 C 257.438 121.955,257.308 121.976,257.646 122.867 C 257.791 123.248,257.739 123.534,257.432 124.040 L 257.025 124.708 254.175 124.582 C 248.547 124.333,245.573 123.934,240.208 122.710 C 238.414 122.300,233.560 120.585,233.153 120.217 C 232.976 120.056,232.573 119.827,232.259 119.708 C 231.841 119.549,231.688 119.348,231.688 118.956 C 231.688 118.310,231.203 117.321,230.702 116.948 C 230.115 116.509,229.776 115.992,229.605 115.271 C 229.462 114.668,229.443 114.712,229.424 115.688 M102.589 115.038 C 102.508 115.120,102.442 115.591,102.442 116.087 C 102.442 117.160,102.783 117.261,103.726 116.468 C 104.066 116.182,104.483 115.948,104.654 115.948 C 104.857 115.948,104.941 115.786,104.898 115.481 C 104.830 115.006,102.977 114.651,102.589 115.038 M63.920 118.344 C 63.498 118.765,63.717 119.273,64.320 119.273 C 64.620 119.273,64.853 119.116,64.934 118.859 C 65.186 118.065,64.531 117.732,63.920 118.344 M107.573 118.574 C 107.379 118.768,107.613 119.065,107.960 119.065 C 108.125 119.065,108.260 118.925,108.260 118.753 C 108.260 118.440,107.821 118.326,107.573 118.574 M62.246 119.883 C 61.934 120.228,61.912 120.361,62.127 120.619 C 62.660 121.262,63.703 120.776,63.548 119.958 C 63.447 119.428,62.696 119.385,62.246 119.883 M60.876 121.463 C 60.547 121.860,60.868 122.255,61.432 122.147 C 61.980 122.043,62.082 121.143,61.546 121.143 C 61.324 121.143,61.022 121.287,60.876 121.463 M59.336 123.083 C 58.969 123.351,58.969 123.367,59.330 123.506 C 59.790 123.682,60.231 123.317,59.926 123.012 C 59.787 122.873,59.592 122.896,59.336 123.083 M17.775 123.206 C 17.547 123.576,18.119 123.680,19.497 123.520 C 20.873 123.359,20.877 123.357,20.052 123.198 C 18.893 122.974,17.917 122.977,17.775 123.206 M21.818 123.203 L 21.091 123.338 22.107 123.487 C 24.727 123.872,40.523 123.602,38.753 123.203 C 37.956 123.023,22.786 123.023,21.818 123.203 M51.117 123.202 L 50.390 123.345 51.201 123.453 C 51.647 123.512,52.349 123.495,52.760 123.415 C 53.170 123.334,53.319 123.257,53.091 123.242 C 52.862 123.227,52.488 123.180,52.260 123.137 C 52.031 123.094,51.517 123.123,51.117 123.202 M54.026 123.203 C 53.242 123.427,54.919 123.669,56.004 123.488 C 56.756 123.363,56.784 123.337,56.312 123.202 C 55.648 123.013,54.689 123.013,54.026 123.203 " stroke="none" fill="#7b7978" fill-rule="evenodd"></path></g></svg>